<svg xmlns="http://www.w3.org/2000/svg" viewBox="0 0 324.13 321.24"><defs><style>.a{fill:#fff;}</style></defs><path d="M30.84,218.56s-37.25,60.53-14,60.53,41.91-46.56,41.91-46.56,46.56-4.66,65.18,23.28c0,0-14,60.53,9.31,55.87s14-18.62,14-18.62,9.31,23.28,23.28,0l-4.65-37.25s65.18,4.65,79.15-9.32c0,0,41.9,46.57,55.87,41.91s14-14,14-14-28.54-37.25-44.54-55.87-2-4.66-2-4.66,4.66-14,0-23.28c-.73,1.21,10.77,5.27,30.26-30.26,7-11.64-3.54-54.74-16.29-58.2,1.39,2.18,6.37-39.34,0-51.22,0,0-27.94,4.66-41.91,23.28h-41.9S176.84,50.94,162,50.94s-14.8,41.9-14.8,41.9l-18.62,37.25H119.3s-4.65-83.81-37.24-116.4,4.65,121.06,4.65,121.06S40.15,148.72,30.84,218.56Z"/><path d="M22.8,213.86c-3.64,5.92-7,12.06-10.11,18.26C7.2,243,1.66,254.58.19,266.79c-1.42,11.8,5.23,22.18,18,21.55,15.06-.73,26.29-13.25,34.33-24.75A143.41,143.41,0,0,0,67.76,235l-9,6.84c2.28-.22,4.6-.28,6.9-.29s4.85,0,7.27.19c1.51.09,3,.2,4.53.35,1.9.19,2.57.28,3.41.42,13.25,2.12,27.11,6.5,35,18l-.94-7.18c-3,13.17-5.22,27.35-4.34,40.86.57,8.81,2.52,19.06,10.52,24.24,9.43,6.1,24.46,1.44,31.81-6.06a19.62,19.62,0,0,0,2.31-24,9.36,9.36,0,0,0-11.63-3.81c-3.83,1.68-7.17,6.63-5.39,11,2.78,6.81,7.24,13.57,14.48,16.15a17.17,17.17,0,0,0,15.76-2.38c4.82-3.4,11.4-10.24,11.31-16.46-.1-6.38-1.64-13.06-2.43-19.39l-2.2-17.64-9.31,9.31a331.84,331.84,0,0,0,36,.52c15.82-.6,37.52-.89,49.77-12.56H238.43c6,6.65,12.34,13,18.87,19.16,10,9.38,21.28,20.19,34.55,24.62,13.52,4.52,31.74-7.17,32.27-21.82.16-4.28-2.26-6.67-4.65-9.77q-6.93-9-13.91-17.89-9.33-11.9-18.86-23.65-4.5-5.52-9.11-11c-1.89-2.22-3.78-4.43-5.63-6.68-.39-.47-1.37-1-.21-.21-1.94-1.36.37-4.74.22,3l-6.84,9,.06,0h-4.95c-.87-.31-4.47-3.06-2.49-1.15.58.56,1.19,1.09,1.77,1.65.74.7,1.47,1.42,2.19,2.14,5.14,5.12,13.43,2.47,15.57-4.11,3.23-9.94,3.35-20.89-.94-30.46-2.69-6-13.45-6.19-16.08,0-4.09,9.63,4.49,16.54,13.59,14.29,7.7-1.9,14-8.13,18.81-14.08,8-9.8,16.34-21.09,17.33-34,.81-10.56-1.51-21.88-4.83-31.87-3.47-10.46-9-23.4-20.42-27-9.12-2.9-15.28,9.1-9.06,15.56s14.71.93,16.48-6.24c1.35-5.46,1.69-11.36,2.1-17,.92-12.64,1.9-27.66-3.95-39.31-2-3.94-6.6-5-10.52-4.28-17,2.9-35.34,11.92-46,25.68l6.58-2.73h-41.9L205,67.64a122.77,122.77,0,0,0-20.28-17.38c-9.6-6.57-23.74-13.07-34-4.26-7.45,6.4-9.81,17.43-11.17,26.69a140.18,140.18,0,0,0-1.66,20.15l1.27-4.7-18.62,37.25,8-4.61H119.3l9.32,9.31a323.86,323.86,0,0,0-8.5-56.35c-3.54-14.87-8.28-29.59-15.16-43.27C99.85,20.31,92.6,7.9,82.35,2.1,75-2,66.56,0,62.56,7.56,59,14.29,59.19,23,59.46,30.36c.77,21.32,4.82,42.66,8.9,63.55,2.82,14.5,5.9,29,9.37,43.31l6.51-11.45c-22.78,6.92-41,28.57-50.63,49.35a144.27,144.27,0,0,0-11.75,41c-.69,5,1.21,10,6.5,11.46,4.35,1.19,10.76-1.49,11.46-6.51,3.33-24.08,11.9-47.63,29-64,1.55-1.48,3.17-2.87,4.8-4.25.38-.32,2.2-1.7.44-.37.73-.55,1.48-1.1,2.24-1.63a70.52,70.52,0,0,1,7.45-4.62c1-.56,2.09-1.06,3.14-1.58,2.72-1.35-1.34.38.19-.11.7-.23,1.37-.55,2.08-.76a9.52,9.52,0,0,0,6.5-11.46c-2.54-10.49-4.83-21-7-31.61-2-9.76-3.91-19.54-5.61-29.36-.87-5.06-1.69-10.14-2.43-15.23-.17-1.13-.33-2.27-.49-3.41-.25-1.85,0-.42,0,0l-.27-2.08q-.47-3.63-.84-7.29a139.31,139.31,0,0,1-.78-23.37c.16-2.6-.2.7,0-.2.12-.58.2-1.17.33-1.74s.29-1,.4-1.55c.49-2.37-.5,1-.18.29.44-1,1.14-.87,0-.3s.54.16-1.59,1.42a6.05,6.05,0,0,1-4.18.46c2.12.48-2.08-1.42.55.33,1.84,1.24-1.36-1.45.09.05.55.57,1.2,1.08,1.77,1.65A61.4,61.4,0,0,1,86.18,34.82c6.66,11.72,10.95,24.5,14.4,37.55,1.9,7.22,3.49,14.52,4.84,21.85q.94,5.1,1.73,10.23c.5,3.23.81,5.44,1,7.08.77,6.16,1.48,12.36,1.83,18.56.29,5,4,9.32,9.31,9.32h9.32a9.23,9.23,0,0,0,8-4.62c6-12,12.2-24,18.07-36.13,2.25-4.66,1.82-9.34,2.19-14.4.14-2,.34-3.93.55-5.9.05-.45.1-.9.16-1.35,0,.19-.18,1.27,0,.16s.39-2.5.62-3.74c.41-2.16.89-4.31,1.5-6.42.29-1,.62-2,1-3,0-.08.56-1.43.17-.49s.57-1.16.56-1.15c.38-.67.77-1.34,1.18-2,.24-.39.82-1.53-.14.18a2.7,2.7,0,0,1,.71-.72c1-.5-.8.42-.61.44.87.1.26-.12-.55.09,1.1-.28,0-.06,0-.13,0,.19-1-.23,1,.06-1.37-.2,1,.24,1.41.34a29,29,0,0,1,2.93,1,50.74,50.74,0,0,1,7.05,4.05c6.49,4.29,11.68,9.82,17.4,15,4.78,4.34,13.39,2.84,19.38,2.84h25.54c4.36,0,7.87-.2,11.11-3.8a54.59,54.59,0,0,1,15.44-12.38,72.08,72.08,0,0,1,21.51-7.43l-10.51-4.28c.55,1.1-.25-1.43.35,1.07.2.8.42,1.6.6,2.41a23.62,23.62,0,0,1,.66,5.14A134.21,134.21,0,0,1,276,80.18q-.31,7-1.14,13.87c-.09.72-.07.55.07-.5L274.67,95c-.12.69-.22,1.39-.37,2.09-.44,2.09-1.32,2.43.15.43l3.34-3.34-.08,0,4.7-1.27h-.07l6.58,2.73-.07-.07-9.06,15.57c.94.31.75.22-.55-.26a9.73,9.73,0,0,1,1.1.7c-.3-.87-.69-.74.26.45.36.39.7.79,1,1.2q-.92-1.17.06.18c.5.78,1,1.56,1.45,2.36a53.45,53.45,0,0,1,5.08,12.67,84.37,84.37,0,0,1,2.94,14.23,61.25,61.25,0,0,1,.32,6.64c0,1.08-.06,2.15-.15,3.23-.15,1.91.47-1-.21,1.2-.25.81-.42,1.63-.71,2.42.95-2.57-.55.69-.84,1.21-2,3.51-4.05,7-6.29,10.32a62.09,62.09,0,0,1-9.71,11.66c-.6.54-1.2,1.07-1.83,1.56,1.84-1.44-.43.25-.85.47s-1,.51-1.44.8c-1.44.89,2.31-.76.16-.11-2.44.74,2.19.12.07,0,3.42.18,8.44,3.22,7.91,8.6l-1.28,4.7,0-.06H260.26c2.16,4.81.6,11.38-.94,16.11l15.56-4.11c-3.84-3.84-8.61-9.31-14.7-7.41a9.58,9.58,0,0,0-6.83,9c-.08,3.87,2.54,6.75,4.79,9.57,2.95,3.7,6.11,7.24,9.15,10.88,5.93,7.08,11.72,14.3,17.46,21.54q8,10.11,15.94,20.31l2.75,3.55.37.48,1.11,1.44,1.9,2.47-1.27-4.7c0-2.28.87-.63-.08-.24-.3.89-.21.72.29-.52a10.78,10.78,0,0,1-.69,1.3c-1.18,1.5,1-.81-.7.92s-3.72,2.39-5.95,3.53c-1.37.7,2.4,0,.28,0s1.77.62-.05,0c-.6-.19-1.24-.36-1.85-.53-2.41-.66.31.28-1.11-.46-1.74-.91-3.44-1.85-5.1-2.9a82.27,82.27,0,0,1-9.54-7.06,286.8,286.8,0,0,1-29.45-28.57c-3.42-3.8-9.67-3.33-13.17,0-.88.84-1.13.87,0,.13-.56.38-1.13.75-1.73,1.08s-1.3.68-2,1c1.91-.9-.27.09-.73.24A76.79,76.79,0,0,1,223.31,245a175.18,175.18,0,0,1-24.72,2.08c-10.9.3-21.85.14-32.72-.63-4.59-.32-9.91,4.56-9.32,9.32l4.66,37.25,1.27-4.7A23.23,23.23,0,0,1,159,293c-1,.88-1.25,1.15-.83.8-1.06.58-1.16.67-.31.27-.12-.45,1.58.79.46-.11.6.48,1,.55.46,0-.38-.38-2.22-2.82-.88-.87-.48-.7-.94-1.42-1.36-2.17-.57-1-2-4.44-.36-.4l-17,7.18c.11.16.19.45.34.58,1.61,1.43-1-1.14-.08-.24,1.3,1.26-.54,2.52.28.5-.86,2.12,1.23-.12.22-.15-.18,0-.53,3.14.13.21-.14.63-1.28,1.22-.51.88,1.22-.55-1.51.68.06-.07a36.91,36.91,0,0,1-4.24,2.07c-1.24.41-2.51.68-3.78,1-2.18.53,1-.94-.38.1.22-.17-2.49.67-.59.05.84.13.88.11.11-.06-.94-.33-.7-.22.71.31-.87-1,.13.48.54.55-.29-.05-1-.94-1.17-1.18,1.34,2.07,0-.34-.42-1.18,1.05,2.15-.16-.8-.38-1.64-.12-.47-.2-1-.32-1.44s-.19-1-.27-1.5c.13,1.06.15,1.23.07.52a88.14,88.14,0,0,1,.09-17.79c.13-1.44.28-2.89.45-4.33.09-.84.2-1.68.31-2.52-.05.36-.27,1.85,0,.06.38-2.57.79-5.14,1.26-7.69.52-2.85,1.64-6.06,1.64-9,0-5-4.71-9.73-8.06-13.05a57.54,57.54,0,0,0-10.09-7.9,74.92,74.92,0,0,0-23.06-9.13,107.05,107.05,0,0,0-33.28-2.52c-4.56.45-7.31,2.68-9,6.84-.67,1.67,1.11-2.46.23-.55-.69,1.49-1.33,3-2,4.48-2.13,4.49-4.46,8.9-7,13.17a83,83,0,0,1-9.37,13.15,47.41,47.41,0,0,1-6.3,6.05c.87-.67-1.84,1.18-2.09,1.33-.53.32-1.08.62-1.63.91-1.43.75.17,0-.7.33-.55.2-3.21.9-2.63.8.8-.12-2.77.82-1.38.14.7-.33.78.21-.15-.07-1.12-.33,1.68,1.08.81.4-.33-.25-1.15-.91,0,.08.73.66.22-.1,1.15,1.28-1.33-2,.53,1.68-.1-.24-.58-1.77-.23,1.75,0-.29.08-.81.06-1.72.08-2.53,0-.34.23-1.79,0-.47-.21,1.47.14-.62.21-.91,2.34-10.38,5.57-17.08,10.31-26.37,3-5.94,6.22-11.8,9.71-17.48C45.17,213,29.07,203.65,22.8,213.86Z"/><ellipse class="a" cx="217.08" cy="123.11" rx="9.31" ry="18.62" transform="translate(-17.29 37.38) rotate(-9.47)"/><ellipse class="a" cx="268.3" cy="118.45" rx="9.31" ry="18.62" transform="translate(-22.12 77.54) rotate(-15.8)"/></svg>