<svg xmlns="http://www.w3.org/2000/svg" viewBox="0 0 410.76 445.05"><path d="M103.79,42.28C108.14,33.6,112.85,24.52,119,17a29.4,29.4,0,0,1,2.61-2.86c.34-.32.8-1.18.36-.37.24-.46,1.42-.33.54-.38-4.69-.27-.63.94,1.17,2.28,6.64,4.95,10.44,13.94,13.67,21.35.9,2.06,3.59,3.28,5.71,3.28h39.69A6.61,6.61,0,0,0,188.45,37c3.77-7.08,8.16-14.24,13.69-20.08,1.48-1.56,3.21-2.61,4.76-4,0,0-1.09.48-1.14.31.15.58.41-.55.3,0,0,.12.06,0,.95.6,3,1.89,5.71,5.18,8,8.11A97.48,97.48,0,0,1,224.65,37c.16.31.29.64.44,1s.32.73.49,1.1c.87,1.92-.46-1.18.19.45a162.63,162.63,0,0,1,8,25.51,95.19,95.19,0,0,1,2.4,16.77,93.14,93.14,0,0,1,.07,9.6,59.57,59.57,0,0,1-.88,8.19c-2.31,12.59-8.15,23.37-18.79,30.7-16.66,11.48-38.37,13.41-58,13-17.36-.4-37.38-3.41-50.57-15.18a40.93,40.93,0,0,1-10.9-15,63.91,63.91,0,0,1-3.88-16.17c-1.06-12.41.48-22.38,3.56-34.12Q98.5,56,100.86,49.57c.57-1.58,1.18-3.15,1.8-4.71.38-.94.91-2.1.1-.27.19-.42.37-.84.55-1.26s.31-.7.48-1C107.41,34.63,96,27.9,92.36,35.6c-8.07,17.07-13,36.93-12.68,55.8.25,14.86,4.37,29.43,14,40.95,12.59,15,32.37,21,51.18,23.2,37.83,4.38,88-3,101.32-44.74,7.52-23.58,2-50.58-6.95-73A93.9,93.9,0,0,0,228,17.49C223.12,10.6,215.84.23,206.35,0,195.45-.25,187,14,181.94,22c-1.73,2.72-3.4,5.5-4.91,8.34L182.74,27H143.05l5.71,3.27c-4.85-11.12-20.38-40-36-26-9,8-15,20.65-20.38,31.3C88.56,43.19,100,49.9,103.79,42.28Z"/><path d="M119.52,86.7s25,28.79,39.67,7.33C159.19,94,153.89,73.89,119.52,86.7Z"/><path d="M116,90.22c8.34,9.55,22.85,20.31,36.18,15.64,6.07-2.13,14.14-8.59,10.88-15.52a21.73,21.73,0,0,0-10.45-10.21c-10.88-5.07-23.67-2.13-34.41,1.76-6,2.16-3.41,11.8,2.65,9.61,8.47-3.06,20.42-6.94,28.88-1.63a12.25,12.25,0,0,1,3.79,3.73c.23.36.4.74.61,1.1.6,1.06.27,0,0-.08.1,0,.22.63.25.74l.5-3.84c-9,12.52-24.56,0-31.83-8.35C118.82,78.33,111.79,85.41,116,90.22Z"/><path d="M217.45,83.3s-21,32.54-37.66,11.65C179.79,95,182.65,73.42,217.45,83.3Z"/><path d="M213.25,80.85a51.06,51.06,0,0,1-10,11.21c-7,5.8-13.86,6.81-20-.55l1.25,4.74a10,10,0,0,1,4.05-7c7.41-6.21,19.31-3.55,27.63-1.28,6,1.66,8.62-7.73,2.58-9.38-14.85-4.06-36.37-5.19-42.87,12.37a13.05,13.05,0,0,0-.77,2.66c-.7,4.88,4.84,9,8.76,11.06,8.36,4.29,17.34,1.2,24.34-4.2a60.33,60.33,0,0,0,13.45-14.74C225.07,80.49,216.65,75.61,213.25,80.85Z"/><path d="M158.93,100.45h20.24c4.26,0,4.26-6.61,0-6.61H158.93c-4.26,0-4.27,6.61,0,6.61Z"/><path d="M155.37,126.57a61.64,61.64,0,0,0,16.93-11.2l-5.4-.7a37.32,37.32,0,0,0,14.1,11.9c4,1.92,7.46-4,3.47-5.94a30.58,30.58,0,0,1-11.63-9.43,3.51,3.51,0,0,0-5.41-.7,56.07,56.07,0,0,1-15.53,10.13c-4.06,1.74-.56,7.67,3.47,5.94Z"/><path d="M112.63,134.19c-13.32,0-27.35,0-40.34-2.13-1.49-.24-3-.6-4.43-.94-.38-.08-1.75-.26-1-.26s.06.28,0,0c-.27-1,.48,1,.84.89s.51.82.18.17a7.44,7.44,0,0,0-1.16-1.47,10.23,10.23,0,0,0-2.12-1.63,14.15,14.15,0,0,0-4.83-1.54c-8.63-1.44-18.41.45-26.57,3.32-8.61,3-17.58,8.19-17.49,18.49.08,8.74,6.8,17,14.17,21.25,11.28,6.44,23.93,11.17,35.7,16.66,11.19,5.22,23.1,8.91,34.69,13.12l-4.85-6.38,2.64,39.69c.57,8.45,13.8,8.51,13.23,0l-2.64-39.69a6.92,6.92,0,0,0-4.86-6.37l-15.94-5.8L78.09,178c-.92-.34-1.85-.76-2.79-1-1.76-.49,1.89,1,.56.25-11.13-6.37-23.63-11-35.25-16.45-3.89-1.81-6.27-3-9-6.13a10.38,10.38,0,0,1-2.57-4.53,7.45,7.45,0,0,1,0-2.26c-.13,1.28.35-.66-.2.12,1.73-2.47,5.42-3.81,8.36-4.81a60.35,60.35,0,0,1,11.39-2.72c2.73-.37,7.59.06,8.94-.22s.87,1.08.39,0c.08.16-1.48-2.15-1.15-1.15.43,1.27,2.36,2.57,3.41,3.18a25.5,25.5,0,0,0,8.59,2.57c14.38,2.41,29.29,2.59,43.85,2.6,8.51,0,8.52-13.23,0-13.23Z"/><path d="M105.68,215.52c-8.09-1.11-17.12-.2-24,4.58C64.65,232,73.43,256,80.57,271l1-8c-4.13,5.21-7.66,11.73-7.45,18.56.31,10.07,9,14.71,17.82,16.54,15.54,3.24,54.37,7.4,51.35-18.69L132,284c6,5.11,13.33,8.82,20.49,12,20,8.86,41.55,13.29,63.29,15.44l-4.68-1.94c6.84,6.35,13.85,12.52,21,18.57,10.36,8.82,21.12,18.55,33.3,24.8l-3-4c3,11.19,14.41,15.5,24.34,18.23,7.62,2.08,15.57,3.91,23.52,3.61,10.6-.41,20.49-5.56,21.28-17.19.75-11-6-21.67-10.82-31.2-4-7.92-8.26-15.75-13-23.29-4.42-7.09-9.28-14.7-15.78-20.09l1.94,4.68C293.67,272.33,284,262,276,255.18l1.94,4.68a419.57,419.57,0,0,0-1-48.49c-.59-7.62-1.35-15.23-2.23-22.82-.72-6.17-2-12.43-2-18.65l-3.28,5.71a174.7,174.7,0,0,0,28.45-18.34C312,146.34,327,131.78,330.65,113.56c1.36-6.83,1.65-12.45-3.68-17.2-6.43-5.75-16.17-6.19-24.3-5.33-24.09,2.56-47.21,13.61-68.63,24.22-7.63,3.77-.94,15.19,6.67,11.42,18.21-9,37.35-17.93,57.47-21.71a52.87,52.87,0,0,1,14.12-.85c1.62.14-1.09-.2-.1,0,.36.07.73.11,1.08.19l2.32.59c.62.15,2.36,1.07.35,0a12.35,12.35,0,0,0,1.57.82c1.36.45.52.4.1,0a6.1,6.1,0,0,1,.79.73c1.26,1.76-.76-1.44.27.37.79,1.4-.82-.92-.21-.57,0,0,0,.19.07.22s-2.89,4.74-.23-.7c-.35.71-.08,2.25-.19,3-2.07,15.42-15.61,27.93-27.06,37.12a162.23,162.23,0,0,1-28.32,18.28,6.55,6.55,0,0,0-3.28,5.71c0,11.58,2.68,23.46,3.71,35,1.17,13.13,1.88,26.3,1.89,39.47,0,5.68-2.14,15.52,1.63,20.15,3.57,4.39,8.2,7.37,11.18,12.38a31.51,31.51,0,0,1,2.72,6.54c.66,1.93-.25-1,0,.09.6,2.31.83,3.55,2.55,5.31,10.81,11.07,18.23,24.89,25.25,38.59,1.88,3.66,3.67,7.38,5.5,11.07a49.24,49.24,0,0,1,3.87,9.94,12.66,12.66,0,0,1,.27,5.77,3.84,3.84,0,0,1-1.31,1.75,5.21,5.21,0,0,1-.92.51c-1.66.66,1.34-.4-.41.16a21.45,21.45,0,0,1-3.35.79c1.38-.21-1.42.08-1.87.1-1.05,0-2.1,0-3.15,0s-2.11-.13-3.17-.22c-.63-.06-1.26-.13-1.88-.22,1.41.19-.58-.1-.69-.12-6.51-1.1-17.11-2.76-22.32-6.67a24.15,24.15,0,0,1-2.45-2.34c-.37-.48-2.06-3.68-1.15-1.7a10.9,10.9,0,0,0-5.31-5.86,133.33,133.33,0,0,1-17.15-12.16c-10.78-8.6-21-17.86-31.28-27A12.32,12.32,0,0,0,214,298c-6.8-.75-13.55-1.71-20.26-3.05a180.87,180.87,0,0,1-30.44-8.73,108.08,108.08,0,0,1-17.2-8.47c-1.49-.91-2.9-1.9-4.34-2.87-1.79-1.2,1,.92-.32-.24-3.83-3.26-12-1.57-11.29,4.67.15,1.37.49,3.29-.14,4.51-.17.34-1.78,1.12-.51.61a37.56,37.56,0,0,1-8.57,2.29c-8.12,1.15-16.71.26-24.72-1.34A33.35,33.35,0,0,1,90.29,284c-2.47-1-3-1.86-2.9-3.62a15,15,0,0,1,2-5.52c.49-.88,3.48-5,1.52-2.53a7,7,0,0,0,1-8c-3.66-7.7-7.58-16.68-6.91-25.44.3-3.89,2.08-6.8,4.66-8.2.46-.26.92-.52,1.4-.76,1.13-.57-.65.23.1,0a23.25,23.25,0,0,1,2.69-.84,28.19,28.19,0,0,1,2.88-.57c-2,.3.86,0,1.37-.07,1.29-.07,2.57,0,3.86,0,.87,0,3.73.43.12-.07,3.57.49,7.06-.87,8.14-4.62.89-3.08-1.08-7.65-4.62-8.14Z"/><path d="M65.72,174.2c-18.46,4.64-37.6,15.14-50.14,29.51C5.45,215.32-1.22,231,.19,246.64c.72,8.12,6.06,15.78,10.94,21.94,16.52,20.85,41.91,33.13,64.6,46.18Q113,336.2,150.49,357.34,213,392.77,275.73,428a32.39,32.39,0,0,0,10,3.53,194.28,194.28,0,0,0,42.61,4.15c17.76-.35,37.45-3.43,52.24-14a83.86,83.86,0,0,0,17.67-17.72c9-11.93,14.45-26.53,11.91-41.59-3.78-22.46-23.49-36-40.66-48.36-28.23-20.29-56.66-40.34-85.48-59.8l-4-2.68c-7.11-4.74-13.74,6.72-6.68,11.42,18.31,12.21,36.36,24.83,54.35,37.5q14.19,10,28.29,20.08c10.26,7.34,21.33,14.21,30,23.5,10.5,11.28,14.83,25.78,8.66,40.32-4,9.46-11,17.6-18.76,24.26-.87.75-1.76,1.49-2.67,2.2,2-1.53,1.14-.82.7-.55-1.81,1.11-3.54,2.31-5.42,3.32-7.42,4-15.71,6.25-24,7.58-14.91,2.39-30.63,1.61-45.51-.66-4.52-.68-9-1.66-13.45-2.53a7.82,7.82,0,0,0-1.75-.42c1.48-.12,2,1.08.94.31-3.61-2.53-7.89-4.43-11.73-6.59l-24.57-13.83Q213.17,377.58,178,357.7c-42.48-24-85.62-47.26-127.2-72.83-13.67-8.4-28-19.11-35.42-33.77-.24-.46-1.37-3-.74-1.48a19.31,19.31,0,0,1-.69-1.84c-.27-.86-.49-1.72-.71-2.59-.33-1.34,0,4,.13.21.08-2,0-4,.13-5.94a43.83,43.83,0,0,1,2.07-10.13c6.92-21.46,29.83-34.69,49.14-41,1.49-.49,3-1,4.53-1.35,8.25-2.08,4.76-14.84-3.51-12.76Z"/><polyline points="51.77 296.9 45.05 307.47 78.06 333.76 91.46 320.71"/><path d="M46.06,293.56l-6.73,10.57c-1.42,2.24-1.16,6.27,1,8l33,26.29c2.82,2.25,6.56,2.72,9.35,0l13.41-13.06c6.11-5.95-3.25-15.3-9.36-9.35l-13.4,13.06h9.35l-33-26.29,1,8,6.73-10.58c4.58-7.2-6.86-13.84-11.43-6.67Z"/><polyline points="223.24 398.9 218.51 412.26 255.9 437.82 266.77 420.55"/><path d="M216.32,397l-4.73,13.36c-1.12,3.14.79,6.4,3.3,8.12L252.27,444c3.28,2.24,7.88.52,9.83-2.58L273,424.17c4.94-7.84-7.49-15.06-12.41-7.25L249.7,434.2l9.82-2.58-37.38-25.56,3.3,8.11,4.73-13.36c3.09-8.73-10.78-12.49-13.85-3.82Z"/><polyline points="371.23 316.18 377.55 304.19 343.56 276.08 330.66 291.05"/><path d="M377.25,319.7l6.32-12c1.34-2.54,1.33-6.46-1.09-8.46l-34-28.11c-2.73-2.26-7.22-3.07-9.86,0l-12.9,15c-5.84,6.77,4,16.68,9.86,9.86l12.9-15h-9.86l34,28.11-1.09-8.46-6.33,12c-4.18,7.94,7.85,15,12.05,7.05Z"/></svg>