<svg xmlns="http://www.w3.org/2000/svg" viewBox="0 0 306.89 344.81"><path d="M105.1,168.75c-20.55,17.32-38.9,41.1-47.74,66.55-6.66,19.14-6.34,40,3.64,57.94,9.71,17.45,25.67,30.63,43.79,38.68,15.6,6.92,32.33,10.59,49.29,12.07,8.65.75,17.67,1.23,26.34.31a127.68,127.68,0,0,0,15.88-2.88c3.75-.9-3.18-.75.3-.14,1.22.21,2.47.32,3.7.47a199.27,199.27,0,0,0,30,1.34c10.8-.39,23.52-1.41,32.5-8.09,10.48-7.81,8.43-20.43,2.35-30.47a87.35,87.35,0,0,0-8-10.78l1.47,3.53-1-12c-.53-6.36-10.54-6.42-10,0l.69,8.32c.1,1.18.1,2.42.3,3.59.47,2.76,2,4.2,3.71,6.35,3.46,4.42,7.66,10.59,8.09,15.85.29,3.65-1,5.94-3.94,7.88-3.8,2.55-8.35,3.69-13.06,4.55-10.81,2-22.15,1.62-33.07.85-3.79-.26-7.56-.63-11.33-1.07l-1.43-.19c-.8-.1,1.54.09.53.07a26.4,26.4,0,0,0-5.88.56l-10.62,2c-.66.12-3.89.52-1,.25l-.67.06c-3.08.11-6.14.32-9.23.34A165.72,165.72,0,0,1,130,330c-35.58-8.82-72.8-36.65-66.66-77.64,3-20,14.23-38.35,26.87-53.76a174.56,174.56,0,0,1,22-22.79c4.93-4.15-2.17-11.2-7.07-7.07Z"/><path d="M250.82,300.31c7.46,12.47,22.14,26.94,38,21.92,9.95-3.15,17.6-12,18.05-22.54.47-11.21-6.54-20.71-15.21-27l2.48,4.32a245.58,245.58,0,0,0-5.81-38.13c-5-22.25-12.87-44.87-27.66-62.6v7.07c11.84-12.12,20.51-29.22,23-45.92,2.38-16.07-1.67-33.47-6.25-48.88-3.16-10.61-7.23-21.26-13.21-30.63a71.57,71.57,0,0,0-4.45-6.21c-.81-1-1.66-2-2.54-3-.54-.58-3.57-3.12-2.48-2,.71.74.16.45-.17-.6-.43-1.34-.89-2.68-1.37-4a104.94,104.94,0,0,0-13.44-26.15C235.45,10.08,227-1.49,218.77.16c-19.58,3.92-35.21,18.5-37.63,38.62l5-5A55.5,55.5,0,0,0,153.6,47.25l7.86,1c-7.61-10.07-17.79-19.54-29.67-24.14-10.17-3.93-17.33-2.05-25.21,5A43.84,43.84,0,0,0,95.5,45.47c-2.45,6.06-2.89,12.18-4.33,18.43C89.85,69.62,88,75.18,87,81c-4.53,24.19-4.45,50.14,5.83,72.92,15.28,33.86,53.9,49.94,89.2,51.76,25.43,1.31,54.79-5.19,75.67-20.57,5.13-3.77.15-12.46-5.05-8.63-14.78,10.88-34.45,16.94-52.47,18.76a119.4,119.4,0,0,1-55.5-7.82c-14.68-5.74-28.22-14.35-37.14-27.61-13.16-19.55-15.12-44.22-12.33-67a150.72,150.72,0,0,1,4.41-22.07c2.12-7.63,2.47-15.68,5.77-23a31.84,31.84,0,0,1,10.57-13.33c2.36-1.62,3.71-2.53,5.49-2.67,7.41-.55,16.44,6.67,21.7,11.39a89.21,89.21,0,0,1,7.12,7.17c.8.9,1.56,1.82,2.34,2.74.35.42,1.46,1.89.25.3,2,2.66,5.22,3.32,7.85,1a44.8,44.8,0,0,1,25.47-10.54c3-.19,4.66-2.15,5-5C193.05,22.87,207.31,12,222.47,9.6l-3.86-.5c12.35,7.69,19.91,22,24.8,35.31,1.36,3.71,1.87,6.56,4.79,9.37,5.29,5.08,9.11,11.49,12.28,18,5.92,12.27,9.53,25.76,12,39.12.32,1.65.61,3.31.87,5,.08.51.15,1,.23,1.54.26,1.69-.52-3.53.08.54a61.08,61.08,0,0,1-2.16,27.52,78.31,78.31,0,0,1-17.94,30.73,5.14,5.14,0,0,0,0,7.07c18.19,21.8,25.24,52.56,29.07,80.06.77,5.52-.17,14.65,4.53,18.36,5.45,4.29,10.16,10.67,9.67,17.95-.45,6.61-6.22,12.44-12.75,13.44-10.38,1.59-19.91-9.92-24.66-17.87-3.31-5.52-12-.49-8.64,5.05Z"/><path d="M121.4,196.94c4.42-2.11,8.76-4.41,13-6.89a77.87,77.87,0,0,0,8.39-5.53c1.35-1.05,5.07-6.07,7.11-4.58,2.6,1.9,5.09-2.43,2.52-4.32-3.15-2.3-6.29-1.39-8.89,1.23a45.15,45.15,0,0,1-7.74,6.49,153,153,0,0,1-16.89,9.28c-2.91,1.39-.37,5.7,2.52,4.32Z"/><path d="M269.14,144.28a124.14,124.14,0,0,0,18.09.26c5.28-.38,8.81-2.71,10.32-8.09.87-3.1-3.95-4.43-4.82-1.33-1.66,5.91-7.84,4.64-12.79,4.6-3.6,0-7.21-.16-10.8-.44-3.21-.24-3.19,4.76,0,5Z"/><path d="M77.73,120.78s41.08,12.5,63,9.5c0,0-8.09-9.65-6.09-15.82s43-20.73,76.52,9.55c0,0-5.43,43.27-68.48,8.27"/><path d="M76.4,125.6c7.85,2.38,15.85,4.33,23.88,6,13.07,2.73,27.07,5.34,40.45,3.67,4.41-.55,6.44-5,3.53-8.53a32.41,32.41,0,0,1-4-6.65,20.06,20.06,0,0,1-.85-2.73s-.05-3-.18-.89c-.05.8.26-.17.2-.13a40.23,40.23,0,0,1,14.94-5.13c19.33-3.13,38.78,3.48,53.29,16.32L206.16,124c.37-2.85,0-.07-.21.61a33.48,33.48,0,0,1-1.33,4c.45-1.08-.65,1.27-.87,1.66a26.85,26.85,0,0,1-1.62,2.6A28.08,28.08,0,0,1,198,137c-15.34,11-39-1.42-52.83-9-5.65-3.1-10.7,5.53-5.05,8.63,21.1,11.58,59.78,26.41,73.36-3.58a27.7,27.7,0,0,0,2.36-7.1c1.12-7.21-10.09-12.82-15.52-15.88-16.37-9.22-36.58-12.17-54.78-7.13-5,1.39-12.22,3.65-15,8.53-4.18,7.25,2.08,16.85,6.64,22.38l3.54-8.54c-13,1.62-26.35-.87-39-3.57-7.62-1.63-15.23-3.49-22.69-5.75-6.17-1.87-8.81,7.78-2.65,9.64Z"/><path d="M218.64,156.78v.07c.21,2.72,4.12,3.51,4.91.66,1.53-5.44,2.61-10.23,7.36-14L227.37,140l-.06.06a2.59,2.59,0,0,0,0,3.54c1.22,1.39,3.73,2,5.35,2.68,2.87,1.28,6.08,2.56,8.38,4.75s5.88-1.31,3.54-3.53A27.85,27.85,0,0,0,237,142.8c-1.54-.72-5.48-2-6.14-2.72v3.54l.06-.07a2.5,2.5,0,0,0-3.54-3.53c-5.37,4.22-6.89,9.94-8.64,16.16l4.91.67v-.07c-.25-3.18-5.25-3.21-5,0Z"/><path d="M60.73,262.32a41.39,41.39,0,0,0-24.55-6.78c-14.44.71-30.13,11.09-35.09,25-7.31,20.54,24,22.22,36.64,21.9a19.94,19.94,0,0,0,7.16-1.09c5.23-2,12.42-5.24,17.06-.4s12-2.52,7.38-7.38-11.1-6.1-17.62-5.14a37.4,37.4,0,0,0-7.43,1.92c-.8.3-4.66,1.27-5,2.15.37-1,4-.41,1.52-.61-1.08-.09-2.25.1-3.34.12-3.28.08-6.57,0-9.85-.19a50.29,50.29,0,0,1-10.91-1.77c-2.6-.76-5.15-2-6-3.41-.26-.43-.33-.9,0-2a16.51,16.51,0,0,1,3-5.42c4.51-6,10.87-10.94,18.26-12.68,7.81-1.83,16.91.22,23.51,4.77,5.54,3.82,10.77-5.22,5.27-9Z"/><path d="M229.29,118.37s1.85-47.59,58.85-39.59c0,0,4.82,31.45-22.59,45.23S231,118.5,231,118.5c-12.17-1.28-17.6,7.22-17.6,7.22"/><path d="M231.79,118.37c.3-7.07,3.26-14.92,7.31-21,10.89-16.22,31.09-18.52,49-16.14l-2.41-1.83c-.17-1.11.09.47.07.75a20.37,20.37,0,0,0,.15,2.7A51.44,51.44,0,0,1,285.4,92c-1.42,9.25-5.54,18-12.66,24.23-7.58,6.62-20.8,13-31,9.21a15.13,15.13,0,0,1-6.72-4.93,18.39,18.39,0,0,1-1.31-2.06c-.22-.4-.54-1.18-.32-.62A2.65,2.65,0,0,0,231,116c-7.41-.54-15.48,2-19.76,8.46-1.78,2.69,2.55,5.2,4.32,2.53,3.26-4.94,9.89-6.4,15.44-6l-2.42-1.83c7.15,18.67,31.93,12.2,44.19,3.4,13.71-9.84,20.26-27.91,17.8-44.45-.18-1.18-1.41-1.7-2.41-1.84-19.4-2.57-40.42.61-52.55,17.45a47.17,47.17,0,0,0-8.8,24.64c-.14,3.22,4.86,3.21,5,0Z"/></svg>