<?xml version="1.0" standalone="no"?>
<!DOCTYPE svg PUBLIC "-//W3C//DTD SVG 20010904//EN"
 "http://www.w3.org/TR/2001/REC-SVG-20010904/DTD/svg10.dtd">
<svg version="1.0" xmlns="http://www.w3.org/2000/svg"
 width="512.000000pt" height="512.000000pt" viewBox="0 0 512.000000 512.000000"
 preserveAspectRatio="xMidYMid meet">

<g transform="translate(0.000000,512.000000) scale(0.100000,-0.100000)"
fill="#000000" stroke="none">
<path d="M2278 4535 c-110 -15 -315 -63 -433 -101 -111 -36 -307 -131 -412
-199 -201 -131 -376 -296 -539 -510 -174 -228 -438 -452 -709 -600 -38 -21
-76 -45 -82 -53 -30 -37 -1 -92 47 -92 41 0 276 141 418 252 34 26 62 44 62
39 0 -4 -34 -75 -75 -157 -118 -237 -243 -413 -390 -552 -80 -75 -89 -98 -55
-132 36 -36 63 -26 155 62 150 142 297 356 412 598 174 365 237 472 385 653
202 246 502 463 778 562 199 71 424 114 640 122 383 14 719 -71 977 -249 154
-106 353 -334 353 -405 0 -54 -9 -58 -146 -63 l-128 -6 -35 39 c-45 50 -103
83 -172 97 -76 15 -163 -5 -276 -65 -64 -34 -96 -45 -129 -45 -61 0 -118 31
-151 83 -32 50 -51 67 -74 67 -9 0 -55 -31 -102 -69 -46 -37 -97 -71 -112 -75
-15 -4 -73 -11 -128 -16 -133 -11 -215 -50 -319 -153 -151 -148 -229 -303
-291 -586 l-24 -103 -94 -32 c-171 -57 -326 -163 -438 -298 -77 -93 -97 -132
-82 -164 11 -24 50 -40 75 -31 8 3 39 39 70 81 126 167 320 290 516 326 36 7
115 12 176 12 126 0 169 -14 180 -59 10 -37 -14 -70 -83 -119 l-58 -41 3 -86
c5 -113 -11 -140 -108 -191 -62 -33 -70 -41 -70 -65 0 -16 7 -42 15 -57 8 -17
15 -55 15 -90 0 -68 17 -94 62 -94 48 0 61 29 56 125 -4 74 -2 85 13 90 30 10
100 85 120 128 12 28 19 66 19 112 l1 70 48 37 c121 92 119 251 -4 324 -48 28
-199 50 -268 38 -44 -7 -45 -23 5 166 48 188 109 301 219 411 50 50 149 119
171 119 4 0 -8 -26 -26 -57 -67 -121 -156 -360 -156 -423 0 -21 8 -35 26 -47
24 -15 29 -15 52 -2 22 12 35 39 72 149 70 207 176 400 219 400 36 0 105 31
158 71 l54 40 34 -30 c19 -16 41 -34 51 -39 15 -8 11 -17 -34 -71 -180 -216
-287 -470 -327 -779 -14 -102 -14 -118 0 -138 20 -31 51 -39 80 -20 19 12 25
28 30 73 37 338 155 621 341 821 51 56 65 65 109 73 27 5 96 32 153 61 114 56
179 66 237 35 38 -19 74 -59 59 -64 -38 -13 -177 -116 -249 -185 -261 -247
-434 -622 -435 -939 0 -255 88 -477 256 -645 59 -60 146 -124 213 -158 39 -21
76 -15 92 15 20 38 3 63 -83 119 -248 161 -369 399 -355 704 6 136 29 232 96
385 109 255 317 489 535 603 80 41 83 42 206 48 146 6 177 18 213 83 49 85 43
138 -27 247 -188 289 -490 492 -866 579 -211 50 -520 65 -732 36z"/>
<path d="M3750 3290 c-24 -24 -25 -48 -4 -78 19 -27 64 -29 87 -4 53 58 -28
137 -83 82z"/>
<path d="M3335 2883 c-134 -70 -165 -225 -69 -350 78 -103 246 -102 332 3 91
111 51 285 -81 348 -45 21 -142 20 -182 -1z m161 -134 c23 -24 29 -39 29 -73
0 -49 -16 -73 -62 -93 -95 -39 -177 94 -104 168 42 41 96 41 137 -2z"/>
<path d="M4385 2880 c-129 -28 -177 -172 -90 -269 102 -113 285 -43 285 108 0
101 -98 182 -195 161z m65 -135 c15 -19 6 -61 -16 -69 -22 -8 -64 20 -64 42 0
39 55 57 80 27z"/>
<path d="M2426 2424 c-23 -23 -21 -89 4 -114 55 -55 127 20 89 93 -7 12 -17
25 -23 29 -19 13 -54 9 -70 -8z"/>
<path d="M4557 2322 c-36 -39 -7 -102 45 -102 24 0 58 35 58 60 0 27 -35 60
-63 60 -13 0 -31 -8 -40 -18z"/>
<path d="M1005 2246 c-11 -8 -18 -26 -18 -46 0 -54 61 -81 96 -42 50 55 -19
132 -78 88z"/>
<path d="M2102 2119 c-44 -16 -46 -46 -11 -149 54 -164 132 -305 235 -425 31
-38 51 -64 43 -60 -78 46 -260 173 -367 257 -141 111 -176 128 -263 128 -76
-1 -119 -24 -234 -125 -368 -325 -848 -566 -1296 -652 -101 -19 -127 -39 -115
-88 11 -45 42 -50 159 -26 469 94 967 347 1338 681 49 44 100 82 115 86 59 15
101 -2 197 -79 505 -410 1226 -741 2062 -947 311 -76 763 -158 811 -146 37 10
50 53 26 85 -17 23 -36 28 -238 62 -359 60 -666 132 -1001 236 -141 43 -183
60 -183 73 0 32 60 110 107 140 62 39 116 54 178 47 28 -3 196 -49 375 -101
179 -53 337 -96 352 -96 38 0 65 41 50 75 -12 27 -112 114 -293 256 -70 54
-130 106 -133 115 -11 29 -6 54 14 74 28 28 61 25 123 -9 116 -65 383 -164
665 -246 127 -37 157 -43 175 -34 28 15 37 28 37 55 0 34 -28 50 -145 84 -286
83 -484 154 -652 236 -88 43 -121 54 -160 54 -98 0 -183 -87 -183 -189 0 -68
31 -114 131 -193 49 -39 88 -72 87 -74 -2 -1 -86 23 -188 54 -167 51 -194 56
-280 56 -86 1 -101 -2 -162 -31 -88 -41 -151 -101 -189 -179 -18 -35 -33 -64
-34 -64 -1 0 -67 26 -146 58 -187 76 -419 184 -413 193 2 4 23 10 47 14 23 4
95 22 159 41 359 103 651 258 903 479 128 113 139 113 346 4 464 -243 728
-352 813 -335 60 12 86 65 49 98 -10 8 -44 18 -77 22 -96 11 -362 128 -706
312 l-185 99 -85 0 c-103 0 -113 -5 -240 -115 -124 -106 -305 -226 -444 -294
-177 -86 -170 -85 -257 -43 -156 75 -266 195 -372 405 -67 133 -85 149 -132
118 -36 -24 -32 -58 20 -166 89 -182 208 -327 335 -410 74 -47 79 -42 -103
-85 l-118 -28 -68 46 c-164 113 -302 310 -376 537 -15 47 -32 90 -37 96 -13
17 -40 22 -66 13z"/>
<path d="M1755 1471 c-57 -14 -155 -74 -209 -127 -46 -46 -76 -120 -76 -190 0
-125 64 -198 321 -370 137 -91 364 -214 396 -214 42 0 72 72 41 98 -7 6 -65
38 -128 72 -132 71 -343 208 -428 279 -68 57 -87 93 -79 157 6 54 28 81 111
135 104 68 136 63 275 -39 291 -217 707 -414 1206 -572 137 -43 474 -130 507
-130 28 0 58 31 58 60 0 39 -26 51 -220 99 -593 149 -1128 381 -1489 645 -130
96 -197 118 -286 97z"/>
<path d="M1025 1006 c-75 -35 -165 -137 -220 -249 -47 -98 -55 -145 -29 -171
25 -25 94 -14 94 15 0 32 84 184 126 229 57 61 90 80 137 80 36 0 52 -10 199
-122 126 -95 337 -218 376 -218 45 0 69 72 35 102 -10 8 -49 32 -88 53 -108
58 -233 141 -312 206 -40 33 -91 68 -115 79 -60 27 -140 26 -203 -4z"/>
</g>
</svg>
