<svg xmlns="http://www.w3.org/2000/svg" viewBox="0 0 142.68 216.63"><defs><style>.a{fill:#231916;}.b{fill:#fff;}</style></defs><path class="a" d="M16.67,61.58,6.16,47.07,4.67,45l-.9,3.42c-1.07.48-.51.21-.23.12s.6-.19.9-.26.43-.08.64-.12.36.08-.21,0a2.33,2.33,0,0,0,.36,0,11.75,11.75,0,0,1,1.78,0,2.3,2.3,0,0,1,.45,0c-.64-.24-.26,0,0,0s.7.15,1.05.25l.59.19c.14,0,.66.28.08,0,.36.16.7.33,1,.52s.77.48,1.14.74l-.06,0,.35.29.53.47a15.22,15.22,0,0,1,2,2.38,2.5,2.5,0,1,0,4.32-2.52c-2.66-3.9-6.36-6.83-11.16-7.31a12.16,12.16,0,0,0-6.07.95,2.5,2.5,0,0,0-.89,3.42L10.86,62l1.49,2.06a2.56,2.56,0,0,0,3.42.9,2.52,2.52,0,0,0,.9-3.42Z"/><ellipse class="a" cx="13.31" cy="66.6" rx="4.8" ry="6.5"/><ellipse class="a" cx="38.51" cy="18.96" rx="3.74" ry="5.06"/><ellipse class="a" cx="22.06" cy="24.73" rx="3.74" ry="5.06"/><path class="a" d="M24.8,20.44,20.52,4.82,18.77,7.89,32,4.89,29.14,3.74l7.21,12.62c1.59,2.8,5.92.28,4.32-2.52L33.45,1.22A2.55,2.55,0,0,0,30.63.07l-13.19,3A2.53,2.53,0,0,0,15.7,6.15L20,21.76c.85,3.1,5.68,1.79,4.82-1.32Z"/><path class="a" d="M26.46,14.2l6.66-1.84,1-.27a2.5,2.5,0,1,0-1.33-4.82L26.08,9.12l-.95.26a2.5,2.5,0,0,0,1.33,4.82Z"/><ellipse class="a" cx="46.95" cy="79.85" rx="9.45" ry="14.4"/><ellipse class="a" cx="125.85" cy="68.75" rx="9.45" ry="14.4"/><path class="a" d="M49.36,66.11c0-.14.1-.27.16-.41s.13-.34.19-.5.09-.21.13-.32c.23-.54-.12.29-.07.18.64-1.4,1.26-2.81,2-4.18q1.51-3,3.32-5.76c.69-1.07,1.42-2.13,2.18-3.17l.6-.8c.08-.11.44-.57,0,0l.32-.4c.43-.54.87-1.08,1.32-1.6a45.89,45.89,0,0,1,6.18-6l.44-.34c-.51.4,0,0,.08-.06.3-.22.6-.45.91-.66.61-.43,1.24-.85,1.88-1.24a36.26,36.26,0,0,1,4-2.14c.1,0,.7-.29.11-.05l.54-.21c.37-.15.73-.28,1.1-.41.75-.26,1.51-.49,2.27-.69s1.57-.38,2.37-.52c.34-.06.68-.12,1-.16-.63.09.06,0,.16,0l.84-.08a30.56,30.56,0,0,1,5.24,0c.46,0,.92.08,1.38.13.76.1-.51-.08.26,0l.71.11c1,.17,1.93.37,2.88.61,11.54,2.9,21.59,10.82,30.14,19.09,2.31,2.24,5.85-1.3,3.53-3.54C112.3,40.09,93.09,26.44,73.64,33.07,62.24,37,53.8,46.59,48.18,56.91a56.8,56.8,0,0,0-3.64,7.88,2.51,2.51,0,0,0,1.74,3.07,2.56,2.56,0,0,0,3.08-1.75Z"/><path class="b" d="M56.41,69.59s3.9-18.6,7.5-18.9,11.7,9.45,11.7,9.45,12-2.85,19.8,1.35c0,0,7.2-12.9,12.3-12.6s9.6,15.3,9.6,15.3,18,35.7-7.5,46.2S42.31,115.19,56.41,69.59Z"/><path class="a" d="M58.82,70.25a93.13,93.13,0,0,1,3.55-12.81l.34-.91.18-.43c.28-.69-.12.26.06-.14.26-.6.54-1.19.86-1.77l.37-.62c.15-.24.45-.55.08-.14a6,6,0,0,0,.42-.46c.12-.16.47-.24-.17.13.11-.07.41-.18,0,0-.09,0-.93.13-.29.12-.54,0-.23,0,.13.06.63.16-.12-.13.37.16.32.19.64.36,1,.56A21.46,21.46,0,0,1,69,56.7a60.25,60.25,0,0,1,4.89,5.21,2.5,2.5,0,0,0,2.43.64,29.36,29.36,0,0,1,6.16-.8c3.94-.2,8.16,0,11.71,1.9a2.55,2.55,0,0,0,3.43-.9,54,54,0,0,1,3.36-5.23,29.76,29.76,0,0,1,3.21-3.85q.36-.37.75-.72c.12-.12.91-.76.62-.54a7.16,7.16,0,0,1,.93-.62c.12-.08.25-.14.37-.21.57-.3-.44.12.14-.06l.45-.13.09,0c-.36,0-.41,0-.13,0h.35c-.55,0-.37-.09-.11,0,.51.19-.33-.28.26.11l.38.24c.13.07-.27-.28.11.09a12.21,12.21,0,0,1,2.48,3.29c.41.72.79,1.46,1.15,2.2.17.36.34.71.5,1.07.09.19.17.39.26.59.16.35.1.23.14.32q.8,1.92,1.47,3.87a24.74,24.74,0,0,0,1,2.76c.23.48.45,1,.66,1.46.08.17.15.35.23.53-.36-.81,0-.08,0,.11q.28.68.54,1.35a72.59,72.59,0,0,1,2.29,6.91c.36,1.35.69,2.71,1,4.08.15.71.28,1.43.39,2.14.06.35.11.7.16,1-.07-.48,0,0,0,.15s.07.55.09.82A37.67,37.67,0,0,1,121,89c0,.75,0,1.51-.09,2.26a17.19,17.19,0,0,1-.25,2,19,19,0,0,1-3.08,8.06,10.37,10.37,0,0,1-1.18,1.52,19,19,0,0,1-1.81,1.78,11.84,11.84,0,0,1-1.61,1.24,26.93,26.93,0,0,1-2.6,1.5,44.56,44.56,0,0,1-8.45,3c-1.47.39-3,.73-4.45,1q-1,.2-2.1.36l-.58.09-.16,0-1.17.14a57.31,57.31,0,0,1-9.17.3c-.74,0-1.47-.09-2.2-.15l-1-.11-.57-.07c-.19,0-.15,0,.09,0l-.45-.06c-1.41-.22-2.82-.48-4.21-.83a39.39,39.39,0,0,1-4.21-1.31l-.8-.32c-.67-.27.45.21-.2-.08l-.4-.18c-.64-.29-1.28-.61-1.91-1a27.79,27.79,0,0,1-3.46-2.21c-.34-.24.45.37-.08,0l-.32-.26c-.27-.23-.54-.45-.8-.69-.52-.46-1-.95-1.5-1.45s-.84-.94-1.24-1.43.29.4-.13-.17l-.25-.34c-.23-.32-.45-.64-.66-1-.38-.58-.72-1.18-1-1.78-.16-.3-.31-.59-.45-.89l-.24-.51s-.3-.72-.1-.23c-2.65-6.49-2.45-13.46-1-20.37.46-2.25,1-4.48,1.73-6.68.94-3.08-3.88-4.4-4.82-1.32-2.53,8.22-4,17.18-2,25.68a27.33,27.33,0,0,0,10.29,15.72c10.35,7.78,24.94,8.21,37.16,5.77,6.77-1.35,14.08-3.59,19.2-8.41S126,95.75,126,88.78a55.88,55.88,0,0,0-3.42-18.35q-1.06-3-2.36-6c-.2-.44-.39-.89-.61-1.32-.35-.7.3.93,0,0a57.67,57.67,0,0,0-3.13-8c-1.39-2.94-3.24-6.47-6.24-8-3.52-1.87-7,.46-9.53,2.94a46.41,46.41,0,0,0-6.47,8.53c-.33.55-.67,1.1-1,1.66l3.42-.9c-6.46-3.38-14.76-3.24-21.73-1.6l2.43.64a62.86,62.86,0,0,0-4.59-4.93c-2.23-2.15-5.26-5.17-8.58-5.25-2.9-.08-4.51,2.85-5.53,5.14a66.17,66.17,0,0,0-3.2,9.49c-.54,2-1,4.06-1.47,6.11a2.5,2.5,0,1,0,4.82,1.32Z"/><path class="a" d="M66.84,90.35a3.26,3.26,0,0,0,.48.27,7.88,7.88,0,0,0,1.87.67,8.76,8.76,0,0,0,2.65.15,11.3,11.3,0,0,0,1.83-.32,14.24,14.24,0,0,0,2-.77,2.51,2.51,0,0,0,.9-3.42,2.5,2.5,0,0,0-1.5-1.15l-.66-.09a2.47,2.47,0,0,0-1.27.34l-.33.15.59-.25a8.63,8.63,0,0,1-2.13.59l.67-.09a7,7,0,0,1-1.71,0l.66.09a6,6,0,0,1-1.45-.39l.6.25a3.32,3.32,0,0,1-.67-.36,2.5,2.5,0,0,0-3.42.9,2.49,2.49,0,0,0-.25,1.92l.25.6a2.48,2.48,0,0,0,.89.9Z"/><path class="a" d="M92.05,90.75a3.26,3.26,0,0,0,.48.27,7.73,7.73,0,0,0,1.87.67,8.74,8.74,0,0,0,2.65.15,11.18,11.18,0,0,0,1.82-.32,13.78,13.78,0,0,0,2-.77,2.51,2.51,0,0,0,.9-3.42,2.48,2.48,0,0,0-1.49-1.15l-.67-.09a2.43,2.43,0,0,0-1.26.34l-.34.15.6-.25a8.88,8.88,0,0,1-2.13.59l.66-.09a6.91,6.91,0,0,1-1.7,0l.66.09a6,6,0,0,1-1.45-.39l.59.25a3.61,3.61,0,0,1-.67-.36,2.52,2.52,0,0,0-1.92-.25,2.58,2.58,0,0,0-1.5,1.15,2.53,2.53,0,0,0-.25,1.92l.25.6a2.59,2.59,0,0,0,.9.9Z"/><path class="a" d="M80.17,105.05a14.51,14.51,0,0,0,5.65-6.6l-4.18,1.11c.7.86,1.44,1.69,2.19,2.51.55.6,1.11,1.19,1.72,1.74a6.17,6.17,0,0,0,2.31,1.49,2.5,2.5,0,1,0,1.33-4.82c-.26-.08.7.4.3.12l-.31-.21c.8.51.3.23.09,0l-.39-.35c-.58-.54-1.12-1.12-1.66-1.71-.7-.77-1.38-1.55-2-2.36a2.45,2.45,0,0,0-2.43-.64A2.61,2.61,0,0,0,81,97.13c0-.08.23-.52.08-.22l-.12.25c-.09.18-.2.36-.3.54l-.3.45-.16.23c-.17.25.34-.43.15-.19a14.12,14.12,0,0,1-1.45,1.54c-.21.19-.42.38-.64.55l-.28.23c-.22.18.56-.42.29-.22l-.12.09c-.16.12-.33.24-.51.35a2.5,2.5,0,0,0,2.53,4.32Z"/><path class="a" d="M48.59,103.77a2.75,2.75,0,0,1,.26-.22l.27-.22c-.33.26.17-.12.26-.18a20.14,20.14,0,0,1,2.86-1.7A25.48,25.48,0,0,1,63.31,99a1.25,1.25,0,0,0,0-2.5,28.34,28.34,0,0,0-12.19,2.69,17,17,0,0,0-4.3,2.78c-1.17,1.1.6,2.86,1.77,1.76Z"/><path class="a" d="M115.63,92.74a14.51,14.51,0,0,1,4.24-.72A25.42,25.42,0,0,1,131,94.1a1.28,1.28,0,0,0,1.71-.45,1.26,1.26,0,0,0-.45-1.71,28.44,28.44,0,0,0-12.22-2.43,17.21,17.21,0,0,0-5.09.82c-1.5.54-.85,3,.66,2.41Z"/><path class="b" d="M68.11,112.19s-.9,11.4-10.8,18-31.5,51.9,0,82.2c0,0,15,5.1,18.9-2.4,0,0,2.7-3.3-1.8-16.2-3.15-5.4,18.9,16.8,18.9,16.8s20.1,10.5,22-6.3c-.12-2.7-5-12.75-9.39-14.7-5.28-2.33,1.8-21.3,1.8-21.3s22.8-23.7,18.9-35.7"/><path class="a" d="M65.61,112.19a1.23,1.23,0,0,0,0,.19c-.06.57.12-.71,0,0s-.26,1.4-.43,2.09a23.38,23.38,0,0,1-2.48,6.29,21.42,21.42,0,0,1-5.84,6.72,26.39,26.39,0,0,0-3.66,3c-5.79,6.18-9.42,14.67-11.81,22.67-3.28,11-4.11,22.89-1.43,34.11a53.71,53.71,0,0,0,7.62,17.4,60,60,0,0,0,6.86,8.39,6.51,6.51,0,0,0,2.49,1.83c.52.17,1.06.31,1.6.45,4.37,1.14,9.41,1.92,13.82.58a10.74,10.74,0,0,0,3.32-1.6A9.36,9.36,0,0,0,77.17,213a9.8,9.8,0,0,0,.68-.88,2.8,2.8,0,0,0,.27-.4c.19-.39-.08-.1-.14.08.1-.26.43-.55.57-.83a6.64,6.64,0,0,0,.6-1.63,16.06,16.06,0,0,0,.23-5.53,44.87,44.87,0,0,0-2.48-10.41,6.83,6.83,0,0,1-.53-1.21c.1.69.22.61.16.36s0,.79.07.55c0,0-2.41,2.39-2.39,2.38s-.82-.14-.5-.05c-.12,0-.66-.39-.37-.14.14.12.33.21.47.31s.19.15.29.21c.31.2-.51-.42-.09-.07.25.21.5.4.74.61.63.52,1.24,1.06,1.85,1.61,5.09,4.58,9.78,9.57,14.76,14.26,1.37,1.28,3.5,1.87,5.21,2.47a23.55,23.55,0,0,0,11.56,1.43c4.78-.77,8.13-4.43,9.23-9.05a9.42,9.42,0,0,0,.25-4.12,17.38,17.38,0,0,0-1-3,36.09,36.09,0,0,0-4.4-7.83,18.73,18.73,0,0,0-2.92-3.24,11.17,11.17,0,0,0-1.7-1.21,5.2,5.2,0,0,0-.53-.26c-.54-.21.16.19-.06,0-.39-.35,0,.07,0,0s-.18-.3-.26-.46c.22.4.08.26,0-.08,0-.19-.1-.39-.14-.59s0-.24-.07-.36.05.49,0,.19,0-.46,0-.7a14.59,14.59,0,0,1,0-1.62c0-.5.07-1,.13-1.51l.06-.48s0,.35,0,.06.1-.66.16-1c.2-1.16.45-2.31.73-3.46.49-2,1.07-4,1.71-5.94.27-.83.55-1.66.86-2.49l-.65,1.11a115.18,115.18,0,0,0,7.75-9.07c4.44-5.71,8.74-11.84,11.11-18.74,1.12-3.26,1.74-7,.69-10.32-1-3.07-5.79-1.76-4.82,1.32.11.37.2.75.28,1.13s0,0,0-.08c0,.19,0,.39,0,.59s0,.69,0,1,0,.42,0,.63-.08.84,0,.52a24.68,24.68,0,0,1-1.36,4.9,56.37,56.37,0,0,1-5.56,10.11,110.84,110.84,0,0,1-11.17,14,9.36,9.36,0,0,0-1.87,3.82,68.4,68.4,0,0,0-2.54,9.77c-.55,3.21-1.17,7.25.63,10.2a5.35,5.35,0,0,0,1.79,1.78c.27.16.57.28.84.44a3.83,3.83,0,0,1,1.09.85,21.3,21.3,0,0,1,3.81,5.15,25.32,25.32,0,0,1,2.4,5.25c.09.3.16.61.25.92s-.13.31,0-.07c-.13.37.15-.2,0,.24-.35,1-.4,2.08-.8,3.07.12-.3-.26.53-.36.7s-.24.38-.35.58-.48.62-.12.18a7.14,7.14,0,0,1-.7.75,5.82,5.82,0,0,1-.45.4c.33-.27.07-.05-.12.07s-.62.35-.93.52c-.13.08-.55.22,0,0l-.54.2c-.31.09-.62.18-.93.25l-.57.11c-.65.12.54,0-.12,0a15.87,15.87,0,0,1-2.18.05c-.34,0-.67,0-1-.07l-.6-.07c.65.09-.09,0-.23,0a33,33,0,0,1-4.14-1c-.52-.17-1-.35-1.56-.55l-.75-.3-.31-.12c-.43-.17.61.27,0,0a5.3,5.3,0,0,0-1.43-.67c-.13,0,.64.64.37.27a6.63,6.63,0,0,0-.53-.53l-2-2q-3.27-3.24-6.58-6.44c-2.22-2.13-4.45-4.26-6.77-6.29-1.41-1.22-3.48-3.49-5.58-2.9s-2,2.66-1.37,4.27a44.27,44.27,0,0,1,2,7.46,18.73,18.73,0,0,1,.32,4.88c0,.14,0,.27,0,.4,0,.53.16-.58,0-.11-.06.19-.07.4-.12.59s-.1.33-.15.5c-.16.65.24-.46.06-.12a2.69,2.69,0,0,1-.16.29c.89-1.2-.06.14-.27.46a4.68,4.68,0,0,1-.27.4c.28-.36-.32.32-.38.38-.43.43-.07.14-.59.46a8.55,8.55,0,0,1-1,.54c.48-.2-.25.08-.29.09l-.7.2-.48.11c-.08,0-1,.18-.56.12a21.56,21.56,0,0,1-5.56-.1l-.75-.12c-.44-.07-.88-.16-1.32-.25-.68-.13-1.35-.29-2-.47s-1.26-.33-1.87-.54l1.1.64A50.74,50.74,0,0,1,45,186.72a58.28,58.28,0,0,1-.67-24.23,68.78,68.78,0,0,1,6.78-20.08c.67-1.27,1.39-2.52,2.16-3.73.35-.56.71-1.1,1.08-1.64l.54-.76.32-.43c.3-.41-.3.37,0,0a26.93,26.93,0,0,1,2.06-2.34c.32-.31.65-.59,1-.88.48-.43-.46.28.06,0s.82-.57,1.22-.86a27.81,27.81,0,0,0,11.09-19.49,2.52,2.52,0,0,0-2.5-2.5,2.55,2.55,0,0,0-2.5,2.5Z"/><path class="b" d="M129.61,134.13s12.9,1.53,10.2-41.11c0,0,1.27-9.93-4.92-13.83S126,87,123.47,108.29"/><path class="a" d="M129.61,136.63c1.87.22,3.87-1,5.23-2.09,3.77-3.11,5.4-8.45,6.34-13a81.57,81.57,0,0,0,1.46-14.29c.08-3.2,0-6.4-.09-9.6-.08-1.88-.26-3.74-.16-5.62.19-3.94-.48-8.36-2.8-11.64-2.05-2.91-6-5.8-9.62-3.66s-4.7,6.91-5.6,10.54a173.94,173.94,0,0,0-3.4,21.06,2.52,2.52,0,0,0,2.5,2.5,2.55,2.55,0,0,0,2.5-2.5c.72-5.9,1.47-11.82,2.73-17.63a48.57,48.57,0,0,1,1.62-5.93c.12-.36.26-.72.4-1.07-.2.49.22-.48.3-.63s.31-.6.49-.89.77-1,.27-.44l.49-.53c.15-.18.5-.29-.1,0a2.2,2.2,0,0,1,.32-.21c.61-.22-.55.17.06,0s-.45,0,.15,0c.29,0,.42.16-.18,0,.09,0,.32,0,.38.09a1.53,1.53,0,0,0,.26.08c.45.07-.46-.31-.07,0a10.22,10.22,0,0,1,1.85,1.44c2.21,2.42,2.6,6,2.45,9.36-.19,4.49.33,9,.28,13.53a84.65,84.65,0,0,1-1,13.29,43.31,43.31,0,0,1-1.09,4.8c-.17.59-.36,1.18-.57,1.75-.11.32-.23.64-.35,1l-.12.3c.28-.71,0,0-.06.11a19.43,19.43,0,0,1-1.41,2.57l-.33.46c-.32.49.43-.46-.06.08-.24.26-.46.52-.71.77l-.38.35c-.44.41-.15.09,0,0-.25.13-.46.32-.71.46l-.33.18c-.54.3.13-.17.23-.09a6.41,6.41,0,0,0-.61.21c-.16.05-.33.06-.48.11-.31.11.88-.05.25,0a1.61,1.61,0,0,1-.31,0,2.51,2.51,0,0,0-2.5,2.5,2.55,2.55,0,0,0,2.5,2.5Z"/><path class="b" d="M75.91,142.49s14.71,24.6,23.7,18-5.36-25.8-11.08-30.6"/><path class="a" d="M73.75,143.75a75.27,75.27,0,0,0,5.06,7.34c3.23,4.23,6.88,8.62,11.58,11.28A11.18,11.18,0,0,0,97.3,164a8.86,8.86,0,0,0,6.31-4.25c3.1-5.14.56-11.82-1.93-16.65a57.67,57.67,0,0,0-5.89-9,40,40,0,0,0-5.49-6,2.57,2.57,0,0,0-3.54,0,2.54,2.54,0,0,0,0,3.54,43.84,43.84,0,0,1,8.95,11A34.51,34.51,0,0,1,99.2,150c.2.63.37,1.26.52,1.89.06.29.11.57.17.86.1.55,0,0,.06.54a12.32,12.32,0,0,1,0,1.61c0,.17-.09.81,0,.32a7.65,7.65,0,0,1-.18.83,5.74,5.74,0,0,1-.26.8c.18-.45-.06.09-.15.25s-.25.42-.39.62c.28-.39-.17.18-.3.31s-.55.49-.42.4-.31.2-.4.26-.66.35-.36.21-.4.13-.53.16-.75.14-.35.09-.28,0-.36,0-.42,0-.62,0,.21,0,.22,0c-.15,0-.3,0-.45-.09-.44-.1-.85-.23-1.27-.37-.59-.19.17.1-.23-.09s-.5-.24-.74-.38c-.47-.25-.93-.53-1.38-.83l-.65-.45-.28-.21c-.21-.16.22.18-.13-.1a34.5,34.5,0,0,1-2.7-2.42,59.37,59.37,0,0,1-4.81-5.47l-.33-.42-.54-.73c-.37-.49-.72-1-1.08-1.48-.58-.81-1.15-1.64-1.7-2.47s-1-1.58-1.52-2.39c-1.66-2.76-6-.25-4.32,2.52Z"/><path class="b" d="M38.76,161.61s-31-10.26-20.34-38c0,0,10-8.31,9.74,15,0,0,3.62,8.47,14.84,9"/><path class="a" d="M39.43,159.2l-.79-.29c-.31-.11-.61-.26-.92-.37,1,.36-.45-.2-.72-.32a44.58,44.58,0,0,1-6.56-3.71c-.32-.22-.64-.44-1-.67-.15-.1-1.06-.8-.6-.44-.65-.51-1.28-1-1.89-1.58a33,33,0,0,1-3.56-3.73c0-.05-.48-.63-.16-.19l-.39-.54c-.22-.31-.43-.61-.64-.93a24.06,24.06,0,0,1-1.47-2.57,20.69,20.69,0,0,1-1.64-4.8,14.6,14.6,0,0,1-.41-3.15,25.29,25.29,0,0,1,.08-3.59,32.45,32.45,0,0,1,2-8l-.65,1.1c-.62.52-.31.22.17-.07A7.19,7.19,0,0,1,21,125c.55-.31-.17,0-.08,0a4.75,4.75,0,0,0,.49-.17c.14,0,.29-.06.43-.11.65-.19-.54,0,0,0a3.73,3.73,0,0,0,.47,0c.67,0-.54-.22.11,0a4,4,0,0,0,.49.16c-.77-.17-.23-.05.07.1.51.24-.33-.4.06,0,.11.12.68.77.44.45s.25.4.32.53a8.2,8.2,0,0,1,.4.78c.28.58-.17-.51.05.12.07.2.15.4.21.6.15.45.28.9.39,1.36a32.28,32.28,0,0,1,.79,7.11c0,1.62-.08,3.14.72,4.57a18.42,18.42,0,0,0,2.35,3.2A20.57,20.57,0,0,0,43,150.14c3.22.19,3.21-4.81,0-5A15.66,15.66,0,0,1,33,141c-.48-.48-.92-1-1.36-1.5-.22-.27.35.48,0,0l-.24-.33c-.13-.19-.27-.39-.39-.59a10.15,10.15,0,0,1-.69-1.25l.34,1.26c0-4.34-.05-9.09-1.66-13.19-.93-2.37-2.47-4.71-5.06-5.45-2.82-.8-7,.45-8.06,3.36-2.82,7.41-3,15.64.48,22.85,2.66,5.49,7.27,9.87,12.33,13.17A42,42,0,0,0,38.1,164c3.06,1,4.37-3.81,1.33-4.83Z"/><path class="b" d="M106.46,117l-1.54,1.92c-2.12,2.63-3,6-1.17,9.09,1.55,2.65,5.42,4.63,8.47,3.44a44.85,44.85,0,0,0,7.15-3.54l-10.26-10.26a23.72,23.72,0,0,1-1.91,1.72c-2.87,2.32-2.71,7.19-.59,9.85,2.5,3.14,6.15,3.48,9.68,1.93,1.84-.81,3.71-1.79,5.61-2.44,2.23-.76,4.34-1,6.5-2.14,7.37-3.87,2.25-16.79-5.78-13.7-1.62.62-3.25,1.18-4.91,1.68l9.23,9.23a1.92,1.92,0,0,1-.68.93l-9.08-1.17c2.19,2.28,5.78,3.52,8.85,2.25,3.74-1.54,6.41-5,5.24-9.22-1-3.65-5.41-6.66-9.23-5.24l-.46.17c-3.79,1.41-6.38,5.07-5.24,9.23,1,3.64,5.42,6.66,9.23,5.23l.46-.17-4-14.46-.55.23h4l-.59-.13,3.31,1.93-.42-.43a7.61,7.61,0,0,0-9.09-1.17,14.56,14.56,0,0,0-6.22,8c-1.8,5.41,3.93,10.84,9.23,9.23q2.49-.76,4.9-1.69l-5.78-13.71c.86-.45-1.64.26-2,.35a26.37,26.37,0,0,0-3.65,1.39c-2.17.93-4.32,1.89-6.49,2.84L117.8,130a24.82,24.82,0,0,0,4.27-4.76c1.93-2.64,1-6.91-1.18-9.09a7.62,7.62,0,0,0-9.09-1.17,24.68,24.68,0,0,1-3.57,2l7.3,12.53,1.54-1.91c2.53-3.16,3.08-7.53,0-10.61-2.63-2.63-8.06-3.18-10.61,0Z"/><path class="b" d="M82.56,122.79q15.24.4,30.48,0l-1.26-4.66a10.11,10.11,0,0,1-3.3,1.23q-2.08.56-4.17,1.08c-2.71.68-5.44,1.3-8.17,1.89a2.53,2.53,0,0,0-1.75,3.07,2.58,2.58,0,0,0,3.08,1.75q2.82-.51,5.59-1.23c2.32-.61,2.45-4.28,0-4.82q-5.94-1.31-11.92-2.4l.59,4.57c.76-.56,2.4-.61,3.36-.81l3.4-.72,7.54-1.59,14.83-3.12c3.14-.66,1.81-5.48-1.33-4.82l-15.32,3.23L96.67,117l-3.89.82A9,9,0,0,0,89.21,119,2.54,2.54,0,0,0,88,121.46a2.45,2.45,0,0,0,1.79,2.08q6,1.09,11.92,2.4v-4.82q-2.78.72-5.59,1.23l1.33,4.82c2.89-.62,5.77-1.28,8.63-2,2.66-.67,5.91-1.11,8.2-2.7,1.92-1.34,1.39-4.73-1.26-4.66q-15.24.39-30.48,0c-3.22-.09-3.22,4.91,0,5Z"/><path class="b" d="M122.86,110.86a1.37,1.37,0,0,1-.88-.43c-.71-.66-1-1.37-1.9-1.8a2.54,2.54,0,0,0-3.42.9,1.82,1.82,0,0,1-1.08.93l3,3.93.66-.66c2-2-.55-5.32-3-3.93A52.73,52.73,0,0,1,100,116a75.51,75.51,0,0,1-18.54,1.49l1.26,4.66c.83-.46,2.25-.25,3.18-.27,1.37,0,2.75,0,4.12,0,2.83,0,5.67.08,8.5.1a85.74,85.74,0,0,0,16.78-1.2A2.52,2.52,0,0,0,117,117.7a2.55,2.55,0,0,0-3.07-1.75A83.93,83.93,0,0,1,97,117c-2.83,0-5.66-.11-8.49-.09-2.68,0-6-.34-8.37,1s-1.1,4.5,1.26,4.65a58.69,58.69,0,0,0,10.09-.36c3.27-.35,6.55-.71,9.78-1.3a57.16,57.16,0,0,0,17.49-6.75l-3-3.93-.67.66a2.5,2.5,0,0,0-.19,3.29,2.55,2.55,0,0,0,3.22.64,6.1,6.1,0,0,0,2.88-2.73l-3.42.9c.23.1.51.57.7.8a6,6,0,0,0,1.3,1.12,6.63,6.63,0,0,0,3.3,1c3.21.18,3.2-4.82,0-5Z"/><path class="b" d="M114.35,126.57a7.36,7.36,0,0,0,3.61-.1l3.16-.58,6.2-1.15-3.16-2.41.44-1.19.24-.17s-.33.21-.37.24l-1,.64-1.85,1.2-3.7,2.42,2.52,4.31,2.88-2-3-3.92L116.53,127l3.54,3.54a8.63,8.63,0,0,1,.93-.88c-.34.27,0,0,.19-.11s.36-.22.55-.32l-3.67-2.82-.88,3.31a2.5,2.5,0,0,0,1.44,2.95,2.54,2.54,0,0,0,3.13-1l1.11-1.65-4.57-1.93-.24,1.65a2.56,2.56,0,0,0,1.45,2.95,2.48,2.48,0,0,0,3.12-1l.91-1.85h-4.32c-.21-.46,0,.18.07.24s.16.77.09.22l4.27-1.77.32,2.16-4.57-.6.15.93a2.52,2.52,0,0,0,4.57.6c.24-.49.45-1,.69-1.49q.18-.37.39-.72c0-.06.28-.37.06-.1s.13-.14.14-.14-.42.32-.1.09.09,0-.08,0c.56-.2-.25,0,.07,0s-.38-.12,0,0l.53.14c.2.06.26.11,0,0a10.57,10.57,0,0,1,1,.52,2.5,2.5,0,0,0,2.52-4.32c-2-1.12-4.42-2-6.56-.65-1.6,1-2.19,2.58-3,4.16l4.57.59-.14-.93a2.48,2.48,0,0,0-2.08-1.79,2.53,2.53,0,0,0-2.49,1.19,3.18,3.18,0,0,0,.45,3.91,2.51,2.51,0,0,0,2.73.52,2.47,2.47,0,0,0,1.54-2.29,10.1,10.1,0,0,0-.84-3,2.52,2.52,0,0,0-4.32,0l-.91,1.86,4.57,1.93.24-1.65a2.5,2.5,0,0,0-4.57-1.92l-1.11,1.64,4.57,1.93.88-3.31a2.54,2.54,0,0,0-3.68-2.83,10.88,10.88,0,0,0-2.68,2.09,2.55,2.55,0,0,0,0,3.54,2.57,2.57,0,0,0,3.54,0l3.78-3.14a2.51,2.51,0,0,0-3-3.93l-2.88,2a2.5,2.5,0,1,0,2.52,4.31l4.58-3c.72-.47,1.46-.93,2.18-1.42a5.1,5.1,0,0,0,1.23-1.09,3.71,3.71,0,0,0,.71-2,2.36,2.36,0,0,0-1-2,2.56,2.56,0,0,0-2.18-.44l-5.69,1-2.79.52c-.46.09-.93.16-1.39.26-.73.15.51-.08-.23,0h-.22c.29.06.3,0,0,0a2.5,2.5,0,0,0-1.33,4.82Z"/><path class="b" d="M131.48,126.6a10.23,10.23,0,0,0-2.45-1.23,8.76,8.76,0,0,0-2.88-.31,14.25,14.25,0,0,0-2.85.24,4.44,4.44,0,0,0-1.82,1,3.82,3.82,0,0,0-1.11,1.71,2.48,2.48,0,0,0,.64,2.44,2.53,2.53,0,0,0,2.43.64,11.28,11.28,0,0,0,1.59-.6,2.51,2.51,0,0,0,.9-3.42,2.5,2.5,0,0,0-1.5-1.15,2.88,2.88,0,0,0-1.93.25l-.11.05.59-.25a6.74,6.74,0,0,1-.86.3l3.07,3.07,0-.1-.25.6a1.18,1.18,0,0,1,.11-.19l-.39.5a1.52,1.52,0,0,1,.31-.31l-.5.39a1.87,1.87,0,0,1,.39-.22l-.6.25a5.28,5.28,0,0,1,.66-.16l-.66.09a14.78,14.78,0,0,1,3.39,0L127,130a4.75,4.75,0,0,1,1,.3l-.6-.26a11,11,0,0,1,1.49.85,2.52,2.52,0,0,0,3.42-.9,2.57,2.57,0,0,0-.9-3.42Z"/><path class="b" d="M129.4,130.45a2.61,2.61,0,0,0-.81-.74,4,4,0,0,0-1-.5,3.9,3.9,0,0,0-2.27,0,.52.52,0,0,0-.35.61.5.5,0,0,0,.62.35,2.91,2.91,0,0,1,1.68,0,2.53,2.53,0,0,1,.72.35l.36.25a1,1,0,0,1,.2.2.5.5,0,1,0,.86-.51Z"/><path class="b" d="M127.92,129.36a4.76,4.76,0,0,0-1.41-.2,4.56,4.56,0,0,0-1.4.3,2.55,2.55,0,0,0-1.12.68,3.32,3.32,0,0,0-.66,1.12.5.5,0,0,0,.35.61.51.51,0,0,0,.62-.35,2.18,2.18,0,0,1,.42-.7,1.8,1.8,0,0,1,.8-.44,3.33,3.33,0,0,1,1-.22,3.82,3.82,0,0,1,1.11.16c.61.19.88-.77.26-1Z"/><path class="b" d="M124.61,130.94l.06-.17,0,.12s0,0,0-.08l-.07.11.06-.07-.1.08a1.43,1.43,0,0,1,.21-.12.35.35,0,0,0,.14-.13.46.46,0,0,0,.09-.17.44.44,0,0,0,0-.2.32.32,0,0,0-.06-.18l-.08-.1a.42.42,0,0,0-.22-.13l-.13,0a.48.48,0,0,0-.26.07l-.13.07-.06,0a.88.88,0,0,0-.15.12l0,0a.64.64,0,0,0-.1.13.58.58,0,0,0-.08.18,1.11,1.11,0,0,0-.07.16.46.46,0,0,0,0,.2.6.6,0,0,0,.06.19.58.58,0,0,0,.13.14.56.56,0,0,0,.17.09l.14,0a.55.55,0,0,0,.25-.07l.1-.08a.61.61,0,0,0,.13-.22Z"/><path class="b" d="M124.77,130.8a.43.43,0,0,0,0-.05l0,.12,0-.06-.08.11a.23.23,0,0,1,.07-.07l-.11.08.24-.13.31-.17a6.54,6.54,0,0,1,.59-.3l-.12,0,.07,0a.52.52,0,0,0,.3-.23.5.5,0,0,0,0-.38.51.51,0,0,0-.62-.35,6.3,6.3,0,0,0-.9.45c-.31.16-.68.32-.77.7a.5.5,0,0,0,0,.38.46.46,0,0,0,.3.23.51.51,0,0,0,.62-.35Z"/><path class="b" d="M127.29,130.18l.6.31a5.15,5.15,0,0,1,.56.33l-.1-.07a.52.52,0,0,1,.11.1l-.07-.1a.83.83,0,0,1,.07.13l-.05-.11a3.55,3.55,0,0,0,.31.69l.79-.61,0,0,.08.1a1.55,1.55,0,0,1-.12-.22,1.2,1.2,0,0,0-.15-.24,2.42,2.42,0,0,0-.5-.46.53.53,0,0,0-.39,0,.58.58,0,0,0-.3.23.53.53,0,0,0-.05.39.57.57,0,0,0,.23.3l.09.06-.1-.08a1.66,1.66,0,0,1,.27.26l-.08-.1a1.3,1.3,0,0,1,.14.26,1.34,1.34,0,0,0,.22.31.5.5,0,0,0,.66,0,.5.5,0,0,0,.13-.64,1.56,1.56,0,0,1-.16-.28l0,.12a2.36,2.36,0,0,0-.21-.52,1.47,1.47,0,0,0-.51-.45c-.31-.18-.64-.35-1-.51a.5.5,0,1,0-.5.86Z"/><path class="a" d="M125.8,132.46v0l.07.1a1.28,1.28,0,0,1-.17-.3l0,.11a3.11,3.11,0,0,1-.2-.61l0,.13a.66.66,0,0,1,0-.14l0,.13s0-.05,0-.08l0,.12a.22.22,0,0,1,0-.08l-.08.1,0-.06-.1.08,0,0-.12.05.07,0h-.19a.46.46,0,0,0,.38,0,.53.53,0,0,0,.23-.3.5.5,0,0,0-.35-.61.77.77,0,0,0-.82.34,1,1,0,0,0-.08.78,3.53,3.53,0,0,0,.15.46c0,.1.09.21.14.31a3,3,0,0,0,.2.29.52.52,0,0,0,.36.14.5.5,0,0,0,.35-.14.53.53,0,0,0,.15-.36l0-.13a.61.61,0,0,0-.13-.22Z"/><path class="a" d="M125.16,132.26l.12-.41s.08-.18,0-.1l0-.08a.08.08,0,0,1,0,.05l.08,0s0,0,0,0l.14,0a2.71,2.71,0,0,1,.41-.09l.1,0h0l.21,0h.7l.41.08a.51.51,0,0,0,.62-.35.5.5,0,0,0-.35-.61,4.71,4.71,0,0,0-2.08,0,1.85,1.85,0,0,0-.94.4,2.33,2.33,0,0,0-.45,1,.52.52,0,0,0,.35.62.53.53,0,0,0,.62-.35Z"/><path class="a" d="M125.16,132.05s0-.11,0,0,0,0,0,0,0,0,0,0,0-.06,0-.07,0,.05,0,0l0-.07c0-.06,0,0,0,0s0,0,.06-.06.1-.07.12-.11-.07,0,0,0l.06,0,.14-.08.08,0h0a1.58,1.58,0,0,1,.31-.09l.07,0h0c-.08,0,0,0,0,0h.07a1.9,1.9,0,0,1,.34,0c.07,0-.09,0,0,0l.09,0,.17,0a.5.5,0,0,0,.27-1,2.65,2.65,0,0,0-1.86.15,1.43,1.43,0,0,0-1,1.63.51.51,0,0,0,.62.34.5.5,0,0,0,.35-.61Z"/><path class="a" d="M125.23,131.81v-.06c0,.07,0,.09,0,0s0,0,0-.06,0-.05,0,0a.34.34,0,0,1,.07-.11l0,0,0-.05,0,0c-.06,0-.06,0,0,0l.13-.08.07,0c-.06,0-.06,0,0,0l.13,0,.29-.07h.88c-.06,0-.06,0,0,0a.55.55,0,0,0,.38-.05.49.49,0,0,0,.23-.3.5.5,0,0,0-.35-.62,3.83,3.83,0,0,0-1.81.1,1.47,1.47,0,0,0-1.09,1.32.5.5,0,0,0,.5.5.5.5,0,0,0,.5-.5Z"/><path class="a" d="M126.2,131.16s.14,0,.09,0h.36s.1,0,.07,0l.21,0a1.91,1.91,0,0,1,.79.37s0,0,0,0a.6.6,0,0,1,.08.08l.16.16c.11.12.22.25.32.38a10,10,0,0,0,.67.79.5.5,0,0,0,.71,0,.51.51,0,0,0,0-.7,8.9,8.9,0,0,0-1.61-1.69,2.62,2.62,0,0,0-2.38-.3.49.49,0,0,0-.18.68.51.51,0,0,0,.68.18Z"/><path class="a" d="M129.46,131.67l-.17,0-.13,1a4,4,0,0,0,1.42-.18c.44-.17.88-.38,1.31-.57.74-.32,1.29-1,2-1.3a.52.52,0,0,0,.35-.61.51.51,0,0,0-.62-.35c-.77.32-1.33.92-2.06,1.3-.38.19-.79.35-1.18.52a3,3,0,0,1-1.26.19.5.5,0,0,0-.49.43.49.49,0,0,0,.36.55l.17,0a.52.52,0,0,0,.61-.35.51.51,0,0,0-.35-.62Z"/><path class="a" d="M126.39,131.07a.77.77,0,0,0,0-.15.46.46,0,0,0,0-.2.37.37,0,0,0-.1-.17l-.07-.06a.58.58,0,0,0-.21-.1.86.86,0,0,0-.32,0,1.45,1.45,0,0,0-.26.07,1.13,1.13,0,0,0-.66.49l.93.26v0l0,.14,0-.09-.05.12,0-.08-.07.1a.17.17,0,0,1,.06-.06l-.1.08.07,0-.12,0,.12,0-.13,0a2.9,2.9,0,0,1,.51,0,.5.5,0,0,0,.35-.14.5.5,0,0,0,0-.71l-.1-.08a.55.55,0,0,0-.25-.07h-.33a1.72,1.72,0,0,0-.39,0l-.16.07-.06,0a.84.84,0,0,0-.18.15,1,1,0,0,0-.18.31.93.93,0,0,0,0,.24l0,.13a.28.28,0,0,0,.09.17.44.44,0,0,0,.26.18.57.57,0,0,0,.26,0,.53.53,0,0,0,.3-.23l0-.06-.08.1.08-.08-.1.08a1,1,0,0,1,.17-.1l-.12,0a1.91,1.91,0,0,1,.34-.1l-.13,0h0l-.13,0h0l-.12-.05h0l-.1-.08,0,0-.08-.11h0l-.06-.12h0l0-.13h0l0-.13h0a.51.51,0,0,0,0,.38.57.57,0,0,0,.3.23.5.5,0,0,0,.62-.35Z"/><path class="a" d="M125.65,131.32l.19,0-.13,0a2,2,0,0,1,.49,0l-.14,0h.07a.35.35,0,0,0,.2,0,.33.33,0,0,0,.19-.06.53.53,0,0,0,.23-.3.51.51,0,0,0,0-.38.52.52,0,0,0-.3-.23,2.19,2.19,0,0,0-.51,0,2.24,2.24,0,0,0-.51.07.52.52,0,0,0-.3.23.55.55,0,0,0-.06.18.45.45,0,0,0,0,.2.53.53,0,0,0,.23.3.58.58,0,0,0,.39,0Z"/><path class="a" d="M125.35,131.55l0-.05c0-.05,0,0,0,0s.07-.08.08-.08,0,0,0,0l0,0s.11-.07.12-.06-.08,0,0,0h.06l.16,0c.11,0-.08,0,0,0l.16,0h.76s.11,0,.14,0,0,0,0,0l.06,0a.5.5,0,1,0,.51-.86,1.57,1.57,0,0,0-.79-.2,4.57,4.57,0,0,0-.74,0,1.55,1.55,0,0,0-1.38.73.5.5,0,0,0,.87.5Z"/><path class="a" d="M126,131.2c-.11.15,0,0,0,0s-.1.07,0,0l0,0,0,0,.06,0,.16,0-.13,0a1.45,1.45,0,0,1,.36,0l-.13,0a3,3,0,0,1,.43.1l.21.07h0l.11.06a.5.5,0,0,0,.51-.87,3.39,3.39,0,0,0-1.24-.35,1.44,1.44,0,0,0-.62.09,1.3,1.3,0,0,0-.6.46.53.53,0,0,0,0,.39.48.48,0,0,0,.23.29.52.52,0,0,0,.69-.18Z"/><path class="b" d="M116.41,110.91c.09-.33.43-.49.72-.64s.82-.44,1.22-.68a23.05,23.05,0,0,0,2.31-1.59c.46-.36-.13-1-.61-.79l-2.15,1.18.6.78a6,6,0,0,1,1.09-1.16,10.24,10.24,0,0,0,1.12-.73,4.52,4.52,0,0,0,1.16-2.34.5.5,0,0,0-1-.26,21.49,21.49,0,0,0-.89,4.57c-.09,1.14-.3,2.72.83,3.44a.49.49,0,0,0,.68-.18c.67-1.1-.17-2.1-.14-3.23l-.93.25a4.48,4.48,0,0,0,2.52,2.14c.65.22,3,.59,2.62-.78a.5.5,0,0,0-.49-.36l-1.58.16c-.41,0-1,.26-1.35-.08a11,11,0,0,1-.91-1.24,3.73,3.73,0,0,1-.68-1.33c-.12-.52-.81-.42-1,0l-.32.86,1,.13a6.73,6.73,0,0,1,1-2.87c.29-.48-.41-1-.79-.61l-1.59,1.87c-.42.49.29,1.2.71.71l1.59-1.87-.79-.61a8,8,0,0,0-1.11,3.38c0,.6.8.63,1,.14l.33-.86h-1a4.54,4.54,0,0,0,.83,1.62,10.21,10.21,0,0,0,1.11,1.48,1.65,1.65,0,0,0,1.44.34l2.11-.22-.48-.37c.11-.23.07-.32-.11-.26h-.26a3,3,0,0,1-.51-.06,3.48,3.48,0,0,1-1-.35,3.43,3.43,0,0,1-1.45-1.47.5.5,0,0,0-.93.26,4.56,4.56,0,0,0,.28,1.46,1.56,1.56,0,0,1,0,1.27l.68-.18c-.37-.24-.39-.78-.39-1.18a15.18,15.18,0,0,1,.11-1.91,20.55,20.55,0,0,1,.8-3.8l-1-.26a3.25,3.25,0,0,1-1.15,2.07,8.53,8.53,0,0,0-1,.67,7.12,7.12,0,0,0-.94,1,.5.5,0,0,0,.6.79l2.16-1.17-.61-.79a20.69,20.69,0,0,1-2.68,1.77c-.71.4-1.6.72-1.82,1.58a.5.5,0,0,0,1,.27Z"/><path class="a" d="M117.32,108.39a13.53,13.53,0,0,0,5-4.66,2,2,0,1,0-3.45-2c-.19.29-.39.57-.6.85l.31-.41a11.37,11.37,0,0,1-2,2l.41-.31a11.54,11.54,0,0,1-1.63,1,2,2,0,1,0,2,3.46Z"/><path class="a" d="M122,103.92a12.17,12.17,0,0,0-.24,1.47,8,8,0,0,0,0,1l3.73-1-.06-.08a2.22,2.22,0,0,0-1.19-.92,1.56,1.56,0,0,0-.8,0,1.51,1.51,0,0,0-.74.24l-.41.31a2,2,0,0,0-.51.89l-.07.53a2,2,0,0,0,.27,1l.06.08.31.4a1.43,1.43,0,0,0,.64.42,1,1,0,0,0,.51.13,1.52,1.52,0,0,0,.79,0l.48-.2.41-.32a1.5,1.5,0,0,0,.41-.64,1.47,1.47,0,0,0,.17-.77,7.92,7.92,0,0,1,.07-1.19l-.07.53c0-.24.08-.48.13-.73a1.42,1.42,0,0,0,0-.79,1.45,1.45,0,0,0-.24-.75,1.53,1.53,0,0,0-.51-.56,1.72,1.72,0,0,0-.68-.36l-.54-.07a1.93,1.93,0,0,0-1,.28l-.4.31a1.91,1.91,0,0,0-.51.88Z"/><path class="a" d="M122.05,103.77l-.32,2a1.52,1.52,0,0,0,0,.79,1.53,1.53,0,0,0,.23.75,2.3,2.3,0,0,0,1.2.92l.53.07a1.9,1.9,0,0,0,1-.28l.4-.31a2,2,0,0,0,.52-.88l.32-2a1.55,1.55,0,0,0,0-.8,1.53,1.53,0,0,0-.23-.74,1.55,1.55,0,0,0-.52-.56,1.45,1.45,0,0,0-.68-.36l-.53-.07a2,2,0,0,0-1,.27l-.4.32a2,2,0,0,0-.52.88Z"/><path class="a" d="M122.06,103.67a33.45,33.45,0,0,0-.9,3.81,9,9,0,0,0-.13,1.37,2.38,2.38,0,0,0,1.11,2,2.14,2.14,0,0,0,1.64.21A2.31,2.31,0,0,0,125.1,110a7.11,7.11,0,0,0,.57-1.22,2,2,0,0,0-1.4-2.46,2,2,0,0,0-1.54.2,2.32,2.32,0,0,0-.92,1.19l-.06.17.2-.48a3.75,3.75,0,0,1-.37.68l.72-.72-.06,0,.47-.2h1l.89.51,0,0,.31.41-.06-.1.21.48a.27.27,0,0,1,0-.12l.07.53a4.49,4.49,0,0,1,.06-.9l-.07.53a31.45,31.45,0,0,1,.9-3.81,2.08,2.08,0,0,0-.21-1.54,2,2,0,0,0-3.65.48Z"/><path class="a" d="M70.07,114c2.57,0,2.57-4,0-4s-2.58,4,0,4Z"/><path class="a" d="M68.24,113.86a28.9,28.9,0,0,0,9.19,2.8,67.13,67.13,0,0,0,10.19,1.1,55.37,55.37,0,0,0,20-3.2c2.4-.86,1.37-4.73-1.07-3.86a51.79,51.79,0,0,1-18.41,3.07,60.83,60.83,0,0,1-9.14-.88c-2.92-.51-6.09-1-8.7-2.48-2.25-1.28-4.26,2.18-2,3.45Z"/><path class="a" d="M108.83,113.79a56.38,56.38,0,0,1,5.26-3.35,2,2,0,0,0-2-3.45,56.23,56.23,0,0,0-5.25,3.35,2.09,2.09,0,0,0-.92,1.2,2,2,0,0,0,.2,1.54,2,2,0,0,0,1.19.92,2,2,0,0,0,1.54-.21Z"/><path class="a" d="M107.46,113.92a5.4,5.4,0,0,0,.58.08h0a2.79,2.79,0,0,0,.32,0l.31,0,0,0h0l.48-.2h0a.24.24,0,0,0,.09-.06,2.22,2.22,0,0,0,.92-1.19,1.56,1.56,0,0,0,0-.8,1.66,1.66,0,0,0-.24-.74l-.31-.41a2,2,0,0,0-.89-.51l-.53-.07a2,2,0,0,0-1,.27.24.24,0,0,1-.11.06l.48-.2-.13,0,.53-.07H108l.54.07h0a1.55,1.55,0,0,0-.8,0,2.06,2.06,0,0,0-1.66,1.43L106,112a2,2,0,0,0,.27,1l.32.41a2,2,0,0,0,.88.51Z"/><path class="a" d="M108.57,114.11a25.81,25.81,0,0,0,7.37-4.24,41.84,41.84,0,0,0,6.5-6,2,2,0,0,0,0-2.82,2,2,0,0,0-2.83,0,37.6,37.6,0,0,1-5.69,5.33c-1,.76-2.06,1.51-3.14,2.21a13.19,13.19,0,0,1-3.28,1.63,2,2,0,0,0,1.07,3.86Z"/></svg>