<svg width="508" height="238" viewBox="0 0 508 238" fill="none" xmlns="http://www.w3.org/2000/svg">
<path d="M498.619 137.667C499.67 126.049 494.083 114.248 482.777 102.82C471.475 91.3976 454.555 80.4555 433.228 70.6026C390.582 50.9006 330.518 35.6477 263.153 29.5525C195.787 23.4573 133.961 27.6817 88.4716 39.4092C65.7222 45.2741 47.1134 53.0016 33.9446 62.2103C20.7707 71.4225 13.1566 82.0291 12.1053 93.6478C11.054 105.266 16.6407 117.067 27.9472 128.495C39.2493 139.918 56.1688 150.86 77.4961 160.712C120.142 180.414 180.206 195.667 247.571 201.763C314.937 207.858 376.763 203.633 422.253 191.906C445.002 186.041 463.611 178.314 476.78 169.105C489.953 159.893 497.568 149.286 498.619 137.667Z" stroke="black" stroke-width="2"/>
<path d="M492.458 90.3633C493.897 102.436 488.741 114.837 477.923 126.966C467.107 139.095 450.709 150.856 429.906 161.591C388.307 183.058 329.295 200.322 262.735 208.252C196.176 216.182 134.759 213.267 89.2815 202.174C66.5386 196.627 47.8357 189.048 34.4727 179.801C21.1082 170.552 13.1835 159.71 11.745 147.637C10.3066 135.564 15.4622 123.163 26.2796 111.034C37.0959 98.9055 53.4945 87.1442 74.2974 76.4088C115.896 54.9418 174.908 37.6782 241.468 29.7481C308.027 21.818 369.444 24.7334 414.922 35.8259C437.664 41.373 456.367 48.9522 469.73 58.1996C483.095 67.448 491.02 78.2901 492.458 90.3633Z" stroke="black" stroke-width="2"/>
<path d="M59.8782 31C59.3173 44.5986 47.7257 48.2343 42 48.3524C56.0221 48.3524 59.7613 59.9206 59.8782 65.7047C59.8782 52.9561 71.0959 48.8245 76.7047 48.3524C63.524 47.5025 59.9951 36.43 59.8782 31Z" fill="black"/>
</svg>
