<svg xmlns="http://www.w3.org/2000/svg" viewBox="0 0 815.5 430.19"><defs><style>.a{fill:#231916;}.b{fill:#fff;}.c{fill:none;stroke:#231916;stroke-miterlimit:10;}</style></defs><path class="a" d="M747.77,276.59l-10.51-14.51L735.77,260l-.9,3.42c-1.07.47-.51.21-.22.11a8.5,8.5,0,0,1,.9-.25c.21-.05.42-.08.64-.12s.35.08-.22,0a2.33,2.33,0,0,0,.37,0,11.62,11.62,0,0,1,1.77,0,1.75,1.75,0,0,1,.46.05c-.64-.24-.26,0-.05,0s.71.15,1.06.25l.58.19c.14.05.66.28.09,0,.35.16.7.33,1,.52s.77.48,1.14.74l-.07-.05.36.29c.18.15.35.31.52.47a14.2,14.2,0,0,1,2,2.38,2.56,2.56,0,0,0,3.42.9,2.51,2.51,0,0,0,.9-3.42c-2.66-3.9-6.36-6.83-11.16-7.31a12,12,0,0,0-6.06.95,2.51,2.51,0,0,0-.9,3.42L742,277.05l1.49,2.06a2.58,2.58,0,0,0,3.42.9,2.51,2.51,0,0,0,.9-3.42Z" transform="translate(-58.29 -139.13)"/><ellipse class="a" cx="686.13" cy="142.48" rx="4.8" ry="6.5"/><ellipse class="a" cx="711.33" cy="94.84" rx="3.74" ry="5.06"/><ellipse class="a" cx="694.88" cy="100.61" rx="3.74" ry="5.06"/><path class="a" d="M755.91,235.44l-4.29-15.62-1.74,3.08,13.19-3-2.83-1.15,7.21,12.62c1.6,2.79,5.92.28,4.32-2.52l-7.21-12.62a2.54,2.54,0,0,0-2.82-1.15l-13.19,3a2.53,2.53,0,0,0-1.75,3.07l4.29,15.62c.85,3.1,5.68,1.79,4.82-1.33Z" transform="translate(-58.29 -139.13)"/><path class="a" d="M757.57,229.21l6.66-1.85.95-.26a2.5,2.5,0,0,0-1.33-4.82l-6.66,1.84-1,.27a2.5,2.5,0,1,0,1.33,4.82Z" transform="translate(-58.29 -139.13)"/><ellipse class="a" cx="719.77" cy="155.73" rx="9.45" ry="14.4"/><ellipse class="a" cx="798.67" cy="144.63" rx="9.45" ry="14.4"/><path class="a" d="M780.46,281.12c0-.14.11-.28.16-.41s.13-.34.2-.5.09-.21.13-.32c.22-.54-.12.29-.07.18.63-1.41,1.26-2.81,2-4.18,1-2,2.12-3.89,3.32-5.76.7-1.08,1.43-2.13,2.19-3.17.19-.27.39-.54.6-.8s.44-.57,0,0c.1-.14.21-.27.31-.4.43-.55.87-1.08,1.32-1.61a47.11,47.11,0,0,1,6.19-6l.44-.34.08-.06c.3-.22.6-.45.91-.66.61-.43,1.24-.85,1.87-1.24a34.8,34.8,0,0,1,4-2.14c.09,0,.7-.29.11,0l.54-.22,1.1-.4c.75-.26,1.5-.49,2.27-.69s1.57-.38,2.37-.52l1-.17c-.63.1.06,0,.16,0l.84-.09a31.62,31.62,0,0,1,5.24,0l1.37.14c.77.09-.5-.08.27,0l.7.11c1,.17,1.93.37,2.88.61,11.54,2.89,21.59,10.82,30.14,19.09,2.32,2.23,5.86-1.3,3.54-3.54-13.27-12.83-32.49-26.48-51.93-19.85-11.4,3.89-19.84,13.52-25.46,23.84a57.28,57.28,0,0,0-3.65,7.87,2.5,2.5,0,1,0,4.82,1.33Z" transform="translate(-58.29 -139.13)"/><path class="b" d="M787.51,284.6s3.9-18.6,7.5-18.9,11.7,9.45,11.7,9.45,12-2.85,19.8,1.35c0,0,7.2-12.9,12.3-12.6s9.6,15.3,9.6,15.3,18,35.7-7.5,46.2S773.41,330.2,787.51,284.6Z" transform="translate(-58.29 -139.13)"/><path class="a" d="M789.92,285.26a91.78,91.78,0,0,1,3.56-12.81c.11-.31.22-.61.34-.91l.18-.43c.27-.69-.12.26,0-.14.27-.6.55-1.19.87-1.77l.37-.62c.15-.24.45-.56.08-.14a6,6,0,0,0,.42-.46c.12-.17.47-.25-.17.13.1-.07.4-.18,0,0-.09,0-.93.13-.3.11-.53,0-.22,0,.13.07.64.16-.12-.13.38.16.31.19.64.36,1,.56a21.46,21.46,0,0,1,3.3,2.73,61.85,61.85,0,0,1,4.89,5.21,2.5,2.5,0,0,0,2.43.64,29.27,29.27,0,0,1,6.15-.8c3.94-.2,8.16,0,11.72,1.9a2.55,2.55,0,0,0,3.42-.9,55.54,55.54,0,0,1,3.37-5.24,31.17,31.17,0,0,1,3.21-3.85L836,268c.13-.12.91-.76.62-.54a8.56,8.56,0,0,1,.94-.63l.37-.2c.56-.3-.44.12.14-.06l.45-.13.09,0c-.37,0-.41,0-.13,0h.34c-.54.05-.36-.1-.11,0,.52.19-.32-.28.27.1.12.09.25.17.38.25s-.28-.28.1.09a11.82,11.82,0,0,1,2.48,3.29c.42.72.8,1.46,1.16,2.2.17.35.33.71.49,1.07l.27.58.14.33c.53,1.27,1,2.57,1.46,3.87a24.8,24.8,0,0,0,1,2.76l.66,1.46c.07.17.15.35.22.53-.35-.81,0-.08,0,.11q.27.66.54,1.35a72.53,72.53,0,0,1,2.28,6.91c.37,1.35.7,2.71,1,4.07.14.72.27,1.43.39,2.15,0,.35.11.69.15,1-.06-.49,0,0,0,.15l.09.82a42.24,42.24,0,0,1,.22,4.5c0,.75,0,1.5-.1,2.25a15.52,15.52,0,0,1-.24,2,18.88,18.88,0,0,1-3.09,8.06,9.16,9.16,0,0,1-1.18,1.52,18.9,18.9,0,0,1-1.8,1.78,11.89,11.89,0,0,1-1.62,1.23,23.94,23.94,0,0,1-2.59,1.51,44.56,44.56,0,0,1-8.45,3c-1.47.39-3,.73-4.46,1-.69.13-1.39.25-2.09.36l-.59.08c-.11,0-.63.09-.15,0l-1.18.14a57.22,57.22,0,0,1-9.16.3c-.74,0-1.47-.09-2.2-.15l-1-.11-.57-.07c-.18,0-.15,0,.1,0l-.45-.07c-1.42-.21-2.82-.48-4.21-.82a38.69,38.69,0,0,1-4.21-1.31l-.81-.32c-.66-.27.46.21-.2-.08l-.39-.18c-.65-.29-1.29-.61-1.91-.95a28.66,28.66,0,0,1-3.47-2.21c-.33-.24.45.37-.07-.05l-.33-.27c-.27-.22-.53-.44-.79-.68-.52-.46-1-.95-1.5-1.46s-.85-.93-1.24-1.42.29.4-.13-.17c-.09-.11-.17-.23-.25-.34-.23-.32-.45-.65-.67-1-.37-.57-.72-1.17-1-1.78-.15-.29-.3-.58-.44-.88l-.24-.51s-.3-.72-.1-.23c-2.65-6.49-2.45-13.46-1-20.37.47-2.25,1.06-4.48,1.73-6.68,1-3.08-3.88-4.4-4.82-1.33-2.52,8.23-4,17.19-2,25.69a27.38,27.38,0,0,0,10.3,15.72c10.35,7.78,24.94,8.21,37.16,5.77,6.76-1.35,14.08-3.59,19.2-8.41s7.28-11.94,7.3-18.91a56,56,0,0,0-3.43-18.36c-.7-2-1.49-4-2.35-5.94-.2-.44-.4-.89-.61-1.32-.35-.7.3.93,0,0a56.49,56.49,0,0,0-3.14-8c-1.39-2.94-3.24-6.47-6.23-8.06-3.52-1.86-7.05.47-9.53,2.95a46,46,0,0,0-6.47,8.53c-.34.54-.67,1.1-1,1.66l3.42-.9c-6.45-3.38-14.76-3.24-21.72-1.6l2.43.64a63,63,0,0,0-4.6-4.93c-2.22-2.15-5.26-5.17-8.58-5.26-2.9-.07-4.5,2.86-5.52,5.15a65,65,0,0,0-3.2,9.49c-.54,2-1.05,4.06-1.48,6.1a2.56,2.56,0,0,0,1.75,3.08A2.52,2.52,0,0,0,789.92,285.26Z" transform="translate(-58.29 -139.13)"/><path class="a" d="M798,305.36a3.26,3.26,0,0,0,.48.27,7.88,7.88,0,0,0,1.87.67,8.74,8.74,0,0,0,2.65.15,12.15,12.15,0,0,0,1.82-.32,13.78,13.78,0,0,0,2-.77,2.51,2.51,0,0,0,.9-3.42,2.46,2.46,0,0,0-1.49-1.15l-.67-.09a2.43,2.43,0,0,0-1.26.34l-.34.15.6-.25a8.88,8.88,0,0,1-2.13.59l.66-.09a6.91,6.91,0,0,1-1.7,0l.66.09a6,6,0,0,1-1.45-.39l.59.25a3.61,3.61,0,0,1-.67-.36,2.47,2.47,0,0,0-1.92-.25,2.58,2.58,0,0,0-1.5,1.15,2.53,2.53,0,0,0-.25,1.92l.25.6a2.67,2.67,0,0,0,.9.9Z" transform="translate(-58.29 -139.13)"/><path class="a" d="M823.16,305.76a2.48,2.48,0,0,0,.48.27,7.73,7.73,0,0,0,1.87.67,8.73,8.73,0,0,0,2.65.15,12.61,12.61,0,0,0,1.82-.32,14.24,14.24,0,0,0,2-.77,2.51,2.51,0,0,0,1.15-1.5,2.57,2.57,0,0,0-.25-1.92,2.5,2.5,0,0,0-1.5-1.15l-.66-.09a2.43,2.43,0,0,0-1.26.34l-.34.15.6-.25a8.83,8.83,0,0,1-2.14.59l.67-.09a7,7,0,0,1-1.71,0l.67.09a6.18,6.18,0,0,1-1.46-.39l.6.25a3.32,3.32,0,0,1-.67-.36,2.5,2.5,0,0,0-1.93-.25,2.56,2.56,0,0,0-1.49,1.15,2.49,2.49,0,0,0-.25,1.92l.25.6a2.5,2.5,0,0,0,.9.9Z" transform="translate(-58.29 -139.13)"/><path class="a" d="M811.27,320.06a14.51,14.51,0,0,0,5.65-6.6l-4.17,1.11c.7.85,1.43,1.69,2.19,2.51.55.6,1.11,1.19,1.71,1.74a6.21,6.21,0,0,0,2.32,1.49,2.5,2.5,0,1,0,1.33-4.82c-.27-.08.7.39.3.12l-.31-.21c.79.51.3.23.09.05l-.39-.35c-.58-.54-1.13-1.12-1.66-1.71-.7-.77-1.39-1.55-2.05-2.36a2.46,2.46,0,0,0-2.43-.64,2.65,2.65,0,0,0-1.75,1.74c0-.07.24-.52.09-.21l-.12.24c-.1.19-.2.37-.31.54a4.53,4.53,0,0,1-.3.46l-.15.22c-.17.26.34-.42.14-.18a14.06,14.06,0,0,1-1.45,1.54c-.2.19-.41.37-.63.55l-.28.23c-.22.18.55-.42.28-.22l-.11.09-.51.35a2.5,2.5,0,1,0,2.52,4.32Z" transform="translate(-58.29 -139.13)"/><path class="a" d="M779.7,318.78a2.75,2.75,0,0,1,.26-.22l.27-.22.25-.19a21.17,21.17,0,0,1,2.87-1.69,25.43,25.43,0,0,1,11.06-2.41,1.25,1.25,0,0,0,0-2.5,28.32,28.32,0,0,0-12.18,2.68,17.41,17.41,0,0,0-4.3,2.78c-1.18,1.11.59,2.87,1.77,1.77Z" transform="translate(-58.29 -139.13)"/><path class="a" d="M846.74,307.75A14.4,14.4,0,0,1,851,307a25.41,25.41,0,0,1,11.14,2.08,1.29,1.29,0,0,0,1.71-.45,1.25,1.25,0,0,0-.45-1.71,28.38,28.38,0,0,0-12.22-2.43,17.14,17.14,0,0,0-5.08.82c-1.51.54-.86,3,.66,2.41Z" transform="translate(-58.29 -139.13)"/><path class="b" d="M799.21,327.2s-.9,11.4-10.8,18-31.5,51.9,0,82.2c0,0,15,5.1,18.9-2.4,0,0,2.7-3.3-1.8-16.2-3.15-5.4,18.91,16.8,18.91,16.8s20.09,10.5,22-6.3c-.12-2.7-5-12.75-9.4-14.7-5.27-2.33,1.8-21.3,1.8-21.3s22.8-23.7,18.9-35.7" transform="translate(-58.29 -139.13)"/><path class="a" d="M796.71,327.2a1.23,1.23,0,0,1,0,.19c-.05.56.13-.72,0,0s-.25,1.4-.42,2.09a23.72,23.72,0,0,1-2.48,6.29,21.38,21.38,0,0,1-5.84,6.71,26,26,0,0,0-3.66,3c-5.8,6.18-9.43,14.66-11.81,22.67-3.28,11-4.11,22.89-1.43,34.1a53.45,53.45,0,0,0,7.62,17.41,58.61,58.61,0,0,0,6.86,8.38A6.53,6.53,0,0,0,788,429.9c.52.17,1.06.31,1.59.45,4.38,1.14,9.41,1.92,13.83.58a11,11,0,0,0,3.32-1.6,8.89,8.89,0,0,0,1.51-1.36c.24-.28.47-.58.69-.88a4,4,0,0,0,.27-.4c.19-.39-.08-.1-.15.07.1-.25.43-.54.58-.82a7.25,7.25,0,0,0,.6-1.63,16.11,16.11,0,0,0,.22-5.54,43.92,43.92,0,0,0-2.48-10.4,7.65,7.65,0,0,1-.53-1.21c.1.69.22.61.16.36s0,.79.08.55c0,0-2.41,2.38-2.39,2.38s-.83-.14-.5-.05c-.12,0-.66-.39-.37-.14a3.82,3.82,0,0,0,.47.31c.1.06.19.15.29.21.31.2-.52-.43-.09-.07.24.21.5.4.74.61.62.52,1.24,1.06,1.84,1.61,5.1,4.58,9.79,9.57,14.77,14.25,1.36,1.29,3.49,1.88,5.21,2.48a23.64,23.64,0,0,0,11.55,1.43c4.79-.77,8.13-4.43,9.23-9a9.32,9.32,0,0,0,.26-4.13,17.57,17.57,0,0,0-1-3,36.16,36.16,0,0,0-4.4-7.84,18.67,18.67,0,0,0-2.92-3.23,10.78,10.78,0,0,0-1.71-1.21,3.6,3.6,0,0,0-.52-.26c-.55-.21.16.19-.06,0-.39-.35,0,.06,0,0s-.17-.31-.26-.46c.23.4.09.26,0-.08l-.15-.59c0-.12,0-.24-.06-.36s0,.49,0,.19,0-.46-.06-.7c0-.54,0-1.08,0-1.62s.07-1,.12-1.51l.06-.48c0,.05,0,.35,0,.05s.1-.65.16-1c.2-1.16.45-2.31.73-3.46.49-2,1.07-4,1.71-5.94.27-.83.55-1.67.85-2.49l-.64,1.11a117.34,117.34,0,0,0,7.75-9.07c4.43-5.71,8.74-11.85,11.1-18.74,1.12-3.26,1.74-7,.69-10.33-1-3.06-5.78-1.75-4.82,1.33a11.46,11.46,0,0,1,.28,1.12c.1.46,0,0,0-.08q0,.3.06.6c0,.34,0,.68,0,1l0,.63c0,.07-.08.84,0,.52a26.11,26.11,0,0,1-1.36,4.9,55.83,55.83,0,0,1-5.57,10.11,109.08,109.08,0,0,1-11.17,14,9.49,9.49,0,0,0-1.86,3.81,67.81,67.81,0,0,0-2.55,9.77c-.55,3.22-1.16,7.26.63,10.21a5.53,5.53,0,0,0,1.79,1.78c.27.16.57.28.85.44a3.94,3.94,0,0,1,1.09.84,21.9,21.9,0,0,1,3.81,5.16,25.08,25.08,0,0,1,2.4,5.25c.09.3.16.61.24.92s-.13.3,0-.07c-.14.37.15-.2,0,.24-.34,1-.4,2.08-.8,3.07a7.76,7.76,0,0,0-.36.7c-.11.2-.23.38-.35.57s-.47.63-.11.19a7.14,7.14,0,0,1-.7.75l-.45.4c.33-.27.07,0-.13.07s-.61.35-.92.52c-.13.07-.55.22,0,0l-.54.19c-.31.1-.62.19-.93.26l-.58.11c-.64.11.55-.05-.11,0a17.79,17.79,0,0,1-2.19.05c-.33,0-.66,0-1-.07l-.59-.07c.65.08-.1,0-.23-.05a33,33,0,0,1-4.14-1c-.52-.17-1-.36-1.56-.55l-.75-.3-.31-.13c-.43-.16.61.28,0,0-.33-.15-1-.67-1.42-.66-.13,0,.64.64.36.27a5.19,5.19,0,0,0-.52-.53l-2-2q-3.27-3.24-6.58-6.44c-2.22-2.13-4.45-4.27-6.78-6.29-1.4-1.22-3.47-3.49-5.57-2.9s-2,2.66-1.38,4.27a42.46,42.46,0,0,1,2,7.46,18.7,18.7,0,0,1,.32,4.88c0,.13,0,.27,0,.4,0,.52.16-.58,0-.11-.06.19-.08.4-.12.59s-.11.33-.15.5c-.16.65.24-.46.06-.12a1.69,1.69,0,0,1-.17.29c.9-1.2,0,.14-.26.46-.09.13-.17.27-.27.4.27-.36-.32.31-.38.38-.44.43-.07.14-.6.46a7.76,7.76,0,0,1-1,.54c.48-.2-.26.08-.29.09l-.7.2-.48.11c-.09,0-1,.18-.56.11a21.56,21.56,0,0,1-5.56-.09,7,7,0,0,0-.76-.12c-.43-.07-.87-.16-1.31-.25-.68-.14-1.36-.29-2-.47s-1.25-.34-1.86-.54l1.1.64a50.74,50.74,0,0,1-14.12-23.91,58.4,58.4,0,0,1-.66-24.22,68.49,68.49,0,0,1,6.78-20.08c.67-1.27,1.38-2.52,2.15-3.74.35-.55.71-1.1,1.09-1.63.17-.26.35-.51.54-.76s.21-.29.32-.43c.3-.41-.31.37,0-.05a25.63,25.63,0,0,1,2.07-2.34c.31-.31.64-.59,1-.88s-.46.28,0,0,.83-.57,1.22-.86a27.76,27.76,0,0,0,11.09-19.49,2.52,2.52,0,0,0-2.5-2.5,2.55,2.55,0,0,0-2.5,2.5Z" transform="translate(-58.29 -139.13)"/><path class="b" d="M860.71,349.14s12.9,1.53,10.2-41.11c0,0,1.27-9.93-4.91-13.83s-8.85,7.8-11.42,29.1" transform="translate(-58.29 -139.13)"/><path class="a" d="M860.71,351.64c1.87.22,3.87-1,5.24-2.09,3.76-3.11,5.39-8.45,6.33-13a80.64,80.64,0,0,0,1.47-14.29c.08-3.2,0-6.4-.1-9.6-.07-1.88-.25-3.75-.16-5.62.2-3.95-.48-8.36-2.79-11.65-2.06-2.91-6-5.8-9.63-3.65s-4.69,6.91-5.6,10.54a173.92,173.92,0,0,0-3.39,21.06,2.52,2.52,0,0,0,2.5,2.5,2.56,2.56,0,0,0,2.5-2.5c.71-5.9,1.47-11.82,2.73-17.64a48.38,48.38,0,0,1,1.61-5.92c.13-.36.26-.72.41-1.07-.2.49.22-.48.3-.63.15-.3.31-.6.49-.89s.77-1,.26-.44c.16-.18.34-.35.5-.53s.5-.29-.1,0a2.14,2.14,0,0,1,.32-.2c.6-.22-.55.17.06,0s-.45,0,.15,0c.29,0,.41.16-.18,0,.08,0,.31,0,.38.08s.25.08.25.09c.45.07-.45-.31-.07,0a10,10,0,0,1,1.86,1.44c2.21,2.42,2.59,6,2.45,9.36-.19,4.49.32,9,.28,13.53a86,86,0,0,1-1,13.29,42.16,42.16,0,0,1-1.1,4.8c-.17.59-.35,1.18-.56,1.75-.11.32-.24.63-.36.95,0,.1-.08.2-.12.3.29-.71,0,0-.05.11a19.84,19.84,0,0,1-1.41,2.56l-.33.47c-.33.49.43-.46-.07.08-.23.25-.46.52-.71.77l-.38.35c-.44.41-.14.09,0,0-.25.12-.47.32-.71.46l-.33.18c-.54.3.13-.17.23-.09a5.69,5.69,0,0,0-.62.21c-.15,0-.32.06-.47.11-.31.11.88-.05.25,0h-.32a2.52,2.52,0,0,0-2.5,2.5,2.56,2.56,0,0,0,2.5,2.5Z" transform="translate(-58.29 -139.13)"/><path class="b" d="M807,357.5s14.72,24.6,23.71,18-5.36-25.8-11.08-30.6" transform="translate(-58.29 -139.13)"/><path class="a" d="M804.85,358.76a79,79,0,0,0,5.06,7.34c3.24,4.23,6.89,8.62,11.59,11.28a11.18,11.18,0,0,0,6.91,1.65,8.84,8.84,0,0,0,6.3-4.26c3.1-5.13.56-11.82-1.92-16.64a57.67,57.67,0,0,0-5.89-9,39.54,39.54,0,0,0-5.5-6,2.56,2.56,0,0,0-3.53,0,2.52,2.52,0,0,0,0,3.54,43.59,43.59,0,0,1,8.94,11A33.55,33.55,0,0,1,830.3,365c.2.62.38,1.25.52,1.89.07.29.12.57.17.86.11.55,0,0,.07.53a14.46,14.46,0,0,1,0,1.61c0,.18-.08.82,0,.33a7.63,7.63,0,0,1-.17.83,7.46,7.46,0,0,1-.26.8c.18-.45-.06.09-.15.25s-.25.42-.39.62c.28-.39-.18.18-.3.31s-.55.49-.42.39-.32.21-.41.27-.66.35-.35.21-.4.13-.53.16-.76.14-.36.09-.27,0-.36,0l-.62,0c-.28,0,.22,0,.22,0a3.11,3.11,0,0,1-.44-.08c-.44-.1-.85-.23-1.28-.37s.18.1-.22-.1l-.74-.37a15.09,15.09,0,0,1-1.39-.84c-.22-.14-.43-.29-.64-.45a2.83,2.83,0,0,1-.28-.2c-.21-.16.21.18-.14-.1-.94-.76-1.84-1.58-2.7-2.43a61.09,61.09,0,0,1-4.81-5.47c-.33-.41,0,0-.32-.42l-.55-.72c-.36-.49-.72-1-1.07-1.48-.58-.81-1.15-1.64-1.7-2.48s-1-1.57-1.53-2.38c-1.65-2.76-6-.25-4.32,2.52Z" transform="translate(-58.29 -139.13)"/><path class="b" d="M769.87,376.62s-31-10.27-20.35-37.95c0,0,10-8.31,9.75,14.95,0,0,3.62,8.47,14.84,9" transform="translate(-58.29 -139.13)"/><path class="a" d="M770.54,374.21l-.8-.29c-.3-.12-.6-.26-.91-.37,1,.36-.45-.2-.72-.32a44.68,44.68,0,0,1-6.57-3.71l-.94-.67c-.15-.11-1.06-.8-.61-.44-.64-.51-1.28-1-1.89-1.58a33.91,33.91,0,0,1-3.56-3.73c0-.05-.48-.63-.15-.19l-.4-.54-.63-.93a25.08,25.08,0,0,1-1.47-2.57,20.38,20.38,0,0,1-1.65-4.8,15.25,15.25,0,0,1-.41-3.15,26.86,26.86,0,0,1,.09-3.59,32.6,32.6,0,0,1,2-8l-.64,1.11c-.63.52-.31.22.16-.08.22-.13.45-.24.68-.37.55-.3-.18.05-.08,0a4.75,4.75,0,0,0,.49-.17l.43-.11c.65-.2-.55-.05,0,0a3.85,3.85,0,0,0,.48,0c.67-.05-.54-.22.11,0l.48.16c-.77-.17-.22-.05.08.1.5.24-.34-.4.06.05.11.12.68.77.44.45s.25.4.32.53.27.51.4.78c.28.58-.18-.51.05.12l.21.6c.15.45.27.9.39,1.36a33.46,33.46,0,0,1,.79,7.11c0,1.62-.09,3.14.72,4.57a17.92,17.92,0,0,0,2.35,3.2,20.55,20.55,0,0,0,14.29,6.37c3.22.19,3.2-4.81,0-5a15.6,15.6,0,0,1-10-4.15,17.4,17.4,0,0,1-1.36-1.49c-.22-.27.34.48,0,0l-.24-.33c-.14-.19-.27-.39-.4-.59a8.92,8.92,0,0,1-.68-1.25l.34,1.26c0-4.35-.06-9.09-1.66-13.19-.93-2.38-2.48-4.71-5.06-5.45-2.82-.81-7,.45-8.06,3.36-2.82,7.41-3,15.63.48,22.85,2.66,5.49,7.27,9.87,12.33,13.17a41.92,41.92,0,0,0,9.41,4.67c3.06,1,4.37-3.8,1.33-4.82Z" transform="translate(-58.29 -139.13)"/><path class="b" d="M837.57,332,836,333.91c-2.12,2.63-3,6-1.18,9.08,1.56,2.66,5.42,4.64,8.47,3.45a45,45,0,0,0,7.16-3.54l-10.26-10.26a24.14,24.14,0,0,1-1.92,1.72c-2.86,2.32-2.7,7.19-.58,9.85,2.5,3.14,6.14,3.47,9.67,1.93,1.85-.81,3.72-1.79,5.61-2.44,2.23-.76,4.35-1,6.5-2.14,7.38-3.87,2.26-16.79-5.78-13.7q-2.41.93-4.9,1.68l9.22,9.23a1.9,1.9,0,0,1-.67.93l-9.09-1.17c2.2,2.28,5.79,3.52,8.86,2.25,3.74-1.54,6.4-5,5.23-9.23-1-3.64-5.41-6.66-9.22-5.23l-.46.17c-3.79,1.41-6.38,5.07-5.24,9.22,1,3.65,5.41,6.66,9.23,5.24l.46-.17-4-14.46-.55.22h4l-.59-.12,3.31,1.93-.41-.43a7.61,7.61,0,0,0-9.09-1.17,14.52,14.52,0,0,0-6.22,8c-1.8,5.4,3.93,10.84,9.23,9.23q2.48-.76,4.9-1.69l-5.78-13.71c.86-.45-1.64.25-2,.34a27.62,27.62,0,0,0-3.64,1.4c-2.17.93-4.33,1.89-6.49,2.84L848.91,345a24.44,24.44,0,0,0,4.26-4.76c1.94-2.65,1-6.92-1.17-9.09a7.62,7.62,0,0,0-9.09-1.17,24.68,24.68,0,0,1-3.57,2l7.29,12.53,1.54-1.92c2.54-3.15,3.09-7.52,0-10.6-2.62-2.63-8-3.18-10.6,0Z" transform="translate(-58.29 -139.13)"/><path class="b" d="M813.66,337.8q15.24.4,30.49,0l-1.26-4.66a10.17,10.17,0,0,1-3.31,1.23q-2.07.56-4.17,1.08c-2.71.68-5.43,1.3-8.16,1.88a2.54,2.54,0,0,0-1.75,3.08,2.57,2.57,0,0,0,3.08,1.75q2.82-.51,5.59-1.23c2.32-.61,2.44-4.29,0-4.82q-5.94-1.31-11.93-2.41l.6,4.57c.76-.55,2.4-.6,3.35-.8l3.41-.72,7.53-1.59L852,332.06c3.15-.66,1.82-5.48-1.32-4.82l-15.32,3.22-7.54,1.59-3.89.82a8.88,8.88,0,0,0-3.57,1.11,2.55,2.55,0,0,0-1.2,2.49,2.49,2.49,0,0,0,1.79,2.08q6,1.09,11.93,2.4v-4.82q-2.77.72-5.59,1.22l1.33,4.83c2.88-.62,5.76-1.28,8.63-2,2.66-.68,5.91-1.11,8.2-2.7,1.92-1.34,1.38-4.73-1.26-4.66q-15.24.39-30.49,0c-3.22-.09-3.21,4.91,0,5Z" transform="translate(-58.29 -139.13)"/><path class="b" d="M854,325.87a1.32,1.32,0,0,1-.87-.43c-.71-.66-1-1.37-1.9-1.8a2.55,2.55,0,0,0-3.42.89,1.79,1.79,0,0,1-1.09.94l3,3.93.67-.66a2.51,2.51,0,0,0-3-3.93,53.17,53.17,0,0,1-16.29,6.24,75.59,75.59,0,0,1-18.55,1.49l1.27,4.66c.83-.46,2.24-.25,3.18-.27,1.37,0,2.74-.05,4.12,0,2.83,0,5.66.08,8.49.1a85,85,0,0,0,16.79-1.21,2.51,2.51,0,0,0,1.74-3.07A2.55,2.55,0,0,0,845,331a83.93,83.93,0,0,1-16.91,1c-2.83,0-5.67-.11-8.5-.09-2.67,0-6-.34-8.37,1s-1.09,4.51,1.26,4.66a58.62,58.62,0,0,0,10.09-.36c3.27-.35,6.55-.71,9.79-1.31a57.44,57.44,0,0,0,17.48-6.74l-3-3.93-.66.66a2.5,2.5,0,0,0-.2,3.28,2.57,2.57,0,0,0,3.23.65,6.08,6.08,0,0,0,2.87-2.73l-3.42.89c.23.11.51.58.71.81a6,6,0,0,0,1.29,1.12,6.66,6.66,0,0,0,3.3,1c3.22.18,3.21-4.82,0-5Z" transform="translate(-58.29 -139.13)"/><path class="b" d="M845.46,341.58a7.32,7.32,0,0,0,3.6-.1l3.17-.58,6.2-1.15-3.17-2.41.45-1.19.23-.17s-.32.21-.36.24l-1,.63-1.85,1.21L849,340.47l2.53,4.32,2.88-2-3-3.93L847.64,342l3.53,3.54a8.58,8.58,0,0,1,.93-.88c-.33.27,0,0,.19-.11l.55-.32-3.67-2.82-.88,3.31a2.5,2.5,0,0,0,4.57,1.92L854,345l-4.57-1.93-.24,1.65a2.55,2.55,0,0,0,1.45,2.95,2.49,2.49,0,0,0,3.12-1l.91-1.85h-4.32c-.21-.47,0,.18.07.24s.16.77.08.22l4.27-1.77.33,2.16-4.57-.6.15.93a2.45,2.45,0,0,0,2.07,1.79,2.48,2.48,0,0,0,2.5-1.19c.24-.49.45-1,.69-1.5a7,7,0,0,1,.39-.71c0-.07.28-.37.05-.11s.13-.13.15-.13-.42.32-.1.08.09,0-.09,0c.56-.2-.24,0,.07,0s-.38-.13,0,0l.54.14c.19.06.25.11,0,0,.34.16.67.34,1,.53a2.5,2.5,0,0,0,2.52-4.32c-2-1.12-4.42-2-6.57-.65-1.59,1-2.19,2.58-3,4.15l4.57.6-.15-.93a2.46,2.46,0,0,0-2.08-1.79,2.54,2.54,0,0,0-2.49,1.19,3.19,3.19,0,0,0,.46,3.91,2.48,2.48,0,0,0,2.73.51,2.43,2.43,0,0,0,1.53-2.28,9.72,9.72,0,0,0-.83-3,2.52,2.52,0,0,0-4.32,0l-.91,1.86,4.57,1.93.24-1.65a2.56,2.56,0,0,0-1.45-2.95,2.52,2.52,0,0,0-3.12,1l-1.12,1.64,4.57,1.93.88-3.31a2.53,2.53,0,0,0-3.67-2.83,10.88,10.88,0,0,0-2.68,2.09,2.55,2.55,0,0,0,0,3.54,2.57,2.57,0,0,0,3.53,0l3.79-3.14a2.51,2.51,0,0,0-3-3.93l-2.89,2a2.5,2.5,0,1,0,2.53,4.32l4.57-3c.73-.47,1.47-.93,2.18-1.42a4.94,4.94,0,0,0,1.23-1.09,3.62,3.62,0,0,0,.71-2,2.33,2.33,0,0,0-1-2,2.57,2.57,0,0,0-2.18-.44L851.4,336l-2.78.52c-.46.08-.93.16-1.39.26-.73.14.51-.08-.23,0h-.23c.3.06.31,0,0,0a2.5,2.5,0,1,0-1.33,4.82Z" transform="translate(-58.29 -139.13)"/><path class="b" d="M862.59,341.61a10.42,10.42,0,0,0-2.45-1.23,8.79,8.79,0,0,0-2.89-.31,13.61,13.61,0,0,0-2.85.24,4.5,4.5,0,0,0-1.82,1,3.89,3.89,0,0,0-1.1,1.71,2.46,2.46,0,0,0,.64,2.44,2.53,2.53,0,0,0,2.43.64,9.74,9.74,0,0,0,1.58-.61,2.49,2.49,0,0,0,1.15-1.49,2.5,2.5,0,0,0-1.74-3.08,2.94,2.94,0,0,0-1.93.26l-.12.05.6-.25a6.38,6.38,0,0,1-.87.3l3.08,3.07,0-.1-.25.6a1.24,1.24,0,0,1,.1-.2l-.39.51a1.87,1.87,0,0,1,.32-.31l-.51.39a2.24,2.24,0,0,1,.4-.22l-.6.25a4.88,4.88,0,0,1,.66-.16l-.67.09a14.33,14.33,0,0,1,3.4,0l-.67-.09a5.16,5.16,0,0,1,1,.29l-.59-.25a10.89,10.89,0,0,1,1.48.85,2.52,2.52,0,0,0,3.42-.9,2.56,2.56,0,0,0-.89-3.42Z" transform="translate(-58.29 -139.13)"/><path class="b" d="M860.51,345.46a2.65,2.65,0,0,0-.82-.74,3.75,3.75,0,0,0-1-.5,3.82,3.82,0,0,0-2.27,0,.5.5,0,1,0,.27,1,2.83,2.83,0,0,1,1.68,0,2.44,2.44,0,0,1,.71.34l.36.25a2,2,0,0,1,.21.2.49.49,0,0,0,.68.18.5.5,0,0,0,.18-.68Z" transform="translate(-58.29 -139.13)"/><path class="b" d="M859,344.36a4.8,4.8,0,0,0-1.41-.19,4.5,4.5,0,0,0-1.4.3,2.5,2.5,0,0,0-1.12.68,3.16,3.16,0,0,0-.66,1.12.51.51,0,0,0,.35.61.5.5,0,0,0,.61-.35,2.21,2.21,0,0,1,.43-.7,1.66,1.66,0,0,1,.8-.44,3.33,3.33,0,0,1,1-.22,3.73,3.73,0,0,1,1.11.16c.62.19.88-.78.27-1Z" transform="translate(-58.29 -139.13)"/><path class="b" d="M855.71,346c0-.06,0-.12.07-.17l0,.12,0-.08-.08.1.07-.06-.1.08a1.05,1.05,0,0,1,.21-.12.43.43,0,0,0,.14-.13.46.46,0,0,0,.09-.17.34.34,0,0,0,0-.2.37.37,0,0,0-.05-.18L856,345a.53.53,0,0,0-.22-.12l-.14,0a.45.45,0,0,0-.25.07l-.14.07-.06,0a.79.79,0,0,0-.15.12l0,0a.94.94,0,0,0-.09.12,1.63,1.63,0,0,0-.09.19l-.06.16a.45.45,0,0,0,0,.2.33.33,0,0,0,.06.19.35.35,0,0,0,.13.14.46.46,0,0,0,.17.09h.13a.51.51,0,0,0,.25-.06l.11-.08a.48.48,0,0,0,.12-.22Z" transform="translate(-58.29 -139.13)"/><path class="b" d="M855.87,345.81l0-.05,0,.12a.21.21,0,0,1,0-.06l-.08.1.06-.06-.1.08.23-.14.31-.16c.2-.1.39-.22.6-.3l-.12.05.07,0a.52.52,0,0,0,.3-.23.56.56,0,0,0,.05-.38.51.51,0,0,0-.62-.35,7.62,7.62,0,0,0-.91.44c-.31.17-.68.33-.76.71a.5.5,0,0,0,.05.38.5.5,0,0,0,.91-.12Z" transform="translate(-58.29 -139.13)"/><path class="b" d="M858.4,345.19l.6.31a3.92,3.92,0,0,1,.56.33l-.1-.08.11.11-.08-.1.08.13-.05-.12a2.93,2.93,0,0,0,.31.7l.79-.61,0-.05.07.1a1.51,1.51,0,0,1-.11-.22,2.13,2.13,0,0,0-.16-.25,2.4,2.4,0,0,0-.5-.45.5.5,0,0,0-.38-.05.5.5,0,0,0-.3.23.53.53,0,0,0-.05.39.61.61,0,0,0,.23.3l.08.06-.1-.08a1.73,1.73,0,0,1,.28.26l-.08-.1a1.23,1.23,0,0,1,.14.25,1,1,0,0,0,.22.32.5.5,0,0,0,.78-.61,1.17,1.17,0,0,1-.15-.27l.05.12a3,3,0,0,0-.21-.52,1.47,1.47,0,0,0-.51-.45c-.32-.19-.64-.35-1-.52a.52.52,0,0,0-.68.18.51.51,0,0,0,.18.69Z" transform="translate(-58.29 -139.13)"/><path class="a" d="M856.91,347.47l0,0,.08.1a1.57,1.57,0,0,1-.18-.31l.05.12a2.69,2.69,0,0,1-.19-.61l0,.13a.33.33,0,0,1,0-.14l0,.13a.19.19,0,0,1,0-.08l0,.12a.41.41,0,0,1,0-.09l-.08.11,0-.06-.1.08.05,0-.12.05h-.13a.5.5,0,0,0,.62-.35.5.5,0,0,0-.35-.61.75.75,0,0,0-.82.33,1,1,0,0,0-.08.79,4.11,4.11,0,0,0,.15.46,2.12,2.12,0,0,0,.14.31,2.51,2.51,0,0,0,.2.29.5.5,0,0,0,.35.14.48.48,0,0,0,.5-.5l0-.13a.48.48,0,0,0-.12-.22Z" transform="translate(-58.29 -139.13)"/><path class="a" d="M856.26,347.27c0-.14.08-.28.13-.41s.08-.18,0-.1a.22.22,0,0,1,.05-.08.12.12,0,0,1-.05.05l.08-.05s0,0,0,0l.13,0,.41-.09.11,0s0,0,0,0l.21,0h.7l.41.08a.5.5,0,0,0,.61-.35.49.49,0,0,0-.35-.61,4.71,4.71,0,0,0-2.08,0,1.89,1.89,0,0,0-.94.4,2.26,2.26,0,0,0-.44,1,.49.49,0,0,0,.35.61.5.5,0,0,0,.61-.34Z" transform="translate(-58.29 -139.13)"/><path class="a" d="M856.27,347.06s0-.12,0,0v0c0-.1,0,0,0,0V347c0-.11,0,.05,0,0l0-.08c0-.06,0,0,0,0s0-.05.05-.06.1-.07.12-.11-.07,0,0,0l.06,0,.14-.08.08,0h0l.31-.1h.07s.12,0,0,0h.11l.34,0c.07,0-.09,0,0,0l.08,0,.18,0a.5.5,0,0,0,.61-.35.51.51,0,0,0-.35-.61,2.6,2.6,0,0,0-1.86.15,1.42,1.42,0,0,0-1,1.62.5.5,0,0,0,1-.26Z" transform="translate(-58.29 -139.13)"/><path class="a" d="M856.34,346.82v-.06q0,.11,0,0a.25.25,0,0,1,0-.07c0-.05,0,0,0,0l.07-.12c0,.06,0,.07,0,0l.05,0a.12.12,0,0,1,0-.05c-.06,0-.07.05,0,0l.14-.08.07,0c-.06,0-.07,0,0,0l.13,0,.29-.07H858a.49.49,0,0,0,.39-.05.53.53,0,0,0,.23-.3.5.5,0,0,0-.35-.61,3.82,3.82,0,0,0-1.81.1,1.46,1.46,0,0,0-1.09,1.32.5.5,0,0,0,.5.5.51.51,0,0,0,.5-.5Z" transform="translate(-58.29 -139.13)"/><path class="a" d="M857.31,346.17l.08,0h.44l.21,0a1.87,1.87,0,0,1,.78.37l0,0,.09.07.16.17c.11.12.21.25.32.38a10,10,0,0,0,.67.79.49.49,0,0,0,.7,0,.5.5,0,0,0,0-.71,9.14,9.14,0,0,0-1.6-1.69,2.7,2.7,0,0,0-2.39-.3.5.5,0,1,0,.51.87Z" transform="translate(-58.29 -139.13)"/><path class="a" d="M860.57,346.68l-.17,0-.13,1a3.81,3.81,0,0,0,1.42-.19c.44-.16.87-.37,1.3-.56.75-.33,1.29-1,2-1.3a.51.51,0,0,0,.35-.61.49.49,0,0,0-.61-.35c-.77.31-1.33.92-2.06,1.3-.38.19-.79.35-1.19.52a3,3,0,0,1-1.25.19.5.5,0,0,0-.14,1l.17,0a.52.52,0,0,0,.62-.35.51.51,0,0,0-.35-.62Z" transform="translate(-58.29 -139.13)"/><path class="a" d="M857.49,346.08a.4.4,0,0,0,0-.15.65.65,0,0,0,0-.2.32.32,0,0,0-.11-.17l-.06-.06a.44.44,0,0,0-.22-.1.65.65,0,0,0-.31,0,1.11,1.11,0,0,0-.26.07,1.19,1.19,0,0,0-.67.49l.94.26v0l0,.13s0-.05,0-.08l0,.12a.56.56,0,0,1,0-.08l-.08.1.06-.06-.1.08.08,0-.12,0,.12,0-.13,0a2.78,2.78,0,0,1,.5,0,.54.54,0,0,0,.36-.14.52.52,0,0,0,.14-.36.5.5,0,0,0-.14-.35l-.11-.08a.52.52,0,0,0-.25-.07h-.32a1.26,1.26,0,0,0-.39,0l-.17.07-.05,0a.65.65,0,0,0-.18.15,1,1,0,0,0-.18.31.64.64,0,0,0,0,.24v.13a.56.56,0,0,0,.09.17.58.58,0,0,0,.26.18.61.61,0,0,0,.27,0,.53.53,0,0,0,.3-.23.21.21,0,0,1,0-.06l-.08.1.08-.08-.1.08.16-.1-.12,0a2,2,0,0,1,.35-.1l-.14,0H857l-.13,0h0l-.12-.05h0l-.1-.08h0l-.07-.1h0l-.05-.12h0v-.13h0v-.14h0a.5.5,0,0,0,.74.57.52.52,0,0,0,.22-.3Z" transform="translate(-58.29 -139.13)"/><path class="a" d="M856.75,346.33l.2,0-.13,0a1.93,1.93,0,0,1,.48,0l-.13,0h.07a.34.34,0,0,0,.2,0,.28.28,0,0,0,.18-.06.5.5,0,0,0,.18-.68.44.44,0,0,0-.29-.23,2.94,2.94,0,0,0-.51,0,2.85,2.85,0,0,0-.51.07.53.53,0,0,0-.3.23.33.33,0,0,0-.06.19.45.45,0,0,0,0,.2.5.5,0,0,0,.23.3.56.56,0,0,0,.38.05Z" transform="translate(-58.29 -139.13)"/><path class="a" d="M856.45,346.56l0-.06s0,0,0,0l.08-.09,0,0,.06,0,.11-.07,0,0,.06,0,.16,0c.12,0-.07,0,0,0h.93s.11,0,.14,0,0,0,0,0l.06,0a.49.49,0,0,0,.68-.18.5.5,0,0,0-.18-.68,1.43,1.43,0,0,0-.79-.2,4.45,4.45,0,0,0-.73,0,1.55,1.55,0,0,0-1.38.73.5.5,0,1,0,.86.5Z" transform="translate(-58.29 -139.13)"/><path class="a" d="M857.08,346.21c-.1.15,0,0,0,0s-.1.07,0,0l.06,0c.06,0,0,0,0,0l.07,0,.16,0-.13,0a1.45,1.45,0,0,1,.36,0l-.13,0a2.23,2.23,0,0,1,.43.1l.21.07c.09,0-.1-.05,0,0l.12.05a.5.5,0,1,0,.5-.86,3.16,3.16,0,0,0-1.24-.35,1.42,1.42,0,0,0-.61.09,1.25,1.25,0,0,0-.6.46.51.51,0,0,0-.05.38.47.47,0,0,0,.23.3.5.5,0,0,0,.68-.18Z" transform="translate(-58.29 -139.13)"/><path class="b" d="M847.52,325.92c.08-.34.43-.49.71-.64s.83-.44,1.23-.68a24.26,24.26,0,0,0,2.31-1.59c.46-.36-.13-1.05-.61-.79L849,323.4l.61.78A5.71,5.71,0,0,1,850.7,323a9.24,9.24,0,0,0,1.11-.73A4.53,4.53,0,0,0,853,320a.5.5,0,0,0-1-.27,21.56,21.56,0,0,0-.88,4.58c-.09,1.14-.3,2.72.83,3.44a.51.51,0,0,0,.68-.18c.66-1.11-.17-2.11-.14-3.23l-.93.25a4.48,4.48,0,0,0,2.52,2.14c.64.22,3,.59,2.61-.78a.51.51,0,0,0-.48-.37l-1.58.17c-.41.05-1,.25-1.35-.08a10.24,10.24,0,0,1-.91-1.25,3.71,3.71,0,0,1-.69-1.32c-.11-.52-.8-.42-1,0l-.32.86,1,.13a6.71,6.71,0,0,1,1-2.88c.29-.47-.41-1-.78-.6l-1.6,1.87c-.41.49.29,1.2.71.71l1.59-1.87-.78-.61a7.81,7.81,0,0,0-1.11,3.38c-.06.6.8.62,1,.14l.32-.86h-1a4.54,4.54,0,0,0,.83,1.62,9.53,9.53,0,0,0,1.11,1.48,1.69,1.69,0,0,0,1.44.34l2.11-.23-.48-.36c.11-.23.07-.32-.11-.27h-.26l-.51-.06a3.44,3.44,0,0,1-1-.35,3.52,3.52,0,0,1-1.44-1.47.5.5,0,0,0-.93.26,4.89,4.89,0,0,0,.27,1.46,1.5,1.5,0,0,1,0,1.26l.68-.18c-.38-.23-.39-.77-.39-1.17a15.18,15.18,0,0,1,.11-1.91,19.77,19.77,0,0,1,.8-3.8l-1-.27a3.14,3.14,0,0,1-1.14,2.07,7.86,7.86,0,0,0-1,.68,6.71,6.71,0,0,0-1,1,.51.51,0,0,0,.61.79l2.16-1.17-.61-.79a20.8,20.8,0,0,1-2.69,1.77c-.7.4-1.59.72-1.82,1.58a.5.5,0,0,0,1,.27Z" transform="translate(-58.29 -139.13)"/><path class="a" d="M848.43,323.4a13.55,13.55,0,0,0,5-4.67,2,2,0,0,0-.72-2.73,2,2,0,0,0-2.74.72,9.75,9.75,0,0,1-.59.84l.31-.4a11.7,11.7,0,0,1-2,2l.41-.31a12.15,12.15,0,0,1-1.63,1,2,2,0,1,0,2,3.46Z" transform="translate(-58.29 -139.13)"/><path class="a" d="M853.14,318.93a12,12,0,0,0-.23,1.46,6.56,6.56,0,0,0,0,1l3.73-1-.06-.08a1.54,1.54,0,0,0-.51-.56,1.5,1.5,0,0,0-.68-.36,2.22,2.22,0,0,0-1.55.2l-.4.31a2.08,2.08,0,0,0-.52.88l-.07.54a2,2,0,0,0,.28,1l0,.08.31.4a1.62,1.62,0,0,0,.65.42,1,1,0,0,0,.5.13,1.55,1.55,0,0,0,.8,0l.48-.21.4-.31a1.43,1.43,0,0,0,.42-.64,1.58,1.58,0,0,0,.17-.77,7.91,7.91,0,0,1,.06-1.19l-.07.53c0-.24.08-.49.14-.73a1.63,1.63,0,0,0,0-.79,1.66,1.66,0,0,0-.24-.75,1.55,1.55,0,0,0-.52-.56,1.45,1.45,0,0,0-.68-.36l-.53-.07a2,2,0,0,0-1,.27l-.4.32a2,2,0,0,0-.52.88Z" transform="translate(-58.29 -139.13)"/><path class="a" d="M853.16,318.78l-.32,2a2.22,2.22,0,0,0,.2,1.55,1.53,1.53,0,0,0,.51.56,1.58,1.58,0,0,0,.68.35l.54.08a2,2,0,0,0,1-.28l.4-.31a1.91,1.91,0,0,0,.51-.88l.32-2a1.94,1.94,0,0,0-.71-2.1,1.5,1.5,0,0,0-.68-.36l-.53-.07a2,2,0,0,0-1,.27l-.41.31a2,2,0,0,0-.51.89Z" transform="translate(-58.29 -139.13)"/><path class="a" d="M853.17,318.68a33.45,33.45,0,0,0-.9,3.81,10.42,10.42,0,0,0-.14,1.37,2.42,2.42,0,0,0,1.12,2,2.11,2.11,0,0,0,1.63.21,2.3,2.3,0,0,0,1.33-1.06,7.06,7.06,0,0,0,.56-1.22,2,2,0,0,0-1.39-2.46,2,2,0,0,0-1.54.2,2.18,2.18,0,0,0-.92,1.19c0,.06,0,.11-.07.16l.2-.47a3.7,3.7,0,0,1-.36.68l.71-.72-.06,0,.48-.2h1l.88.51,0,0,.32.4a.18.18,0,0,1-.06-.09l.2.47,0-.11.08.53a4.49,4.49,0,0,1,.06-.9l-.07.53a31.41,31.41,0,0,1,.89-3.81,2,2,0,0,0-.2-1.54,2.07,2.07,0,0,0-1.19-.92,2,2,0,0,0-2.46,1.4Z" transform="translate(-58.29 -139.13)"/><path class="a" d="M801.17,329c2.58,0,2.58-4,0-4s-2.58,4,0,4Z" transform="translate(-58.29 -139.13)"/><path class="a" d="M799.34,328.87a28.88,28.88,0,0,0,9.2,2.8,67,67,0,0,0,10.19,1.1,55.28,55.28,0,0,0,19.95-3.2c2.41-.86,1.37-4.73-1.06-3.86a51.85,51.85,0,0,1-18.42,3.07,60.82,60.82,0,0,1-9.13-.88c-2.93-.51-6.1-1-8.71-2.49-2.24-1.27-4.26,2.19-2,3.46Z" transform="translate(-58.29 -139.13)"/><path class="a" d="M839.94,328.8a57.57,57.57,0,0,1,5.25-3.35,2,2,0,0,0,.72-2.73,2,2,0,0,0-2.74-.72,57.57,57.57,0,0,0-5.25,3.35,2.18,2.18,0,0,0-.92,1.19,2.06,2.06,0,0,0,.2,1.54,2,2,0,0,0,1.2.92,1.93,1.93,0,0,0,1.54-.2Z" transform="translate(-58.29 -139.13)"/><path class="a" d="M838.56,328.93l.58.08h.06a2.61,2.61,0,0,0,.31,0,1.92,1.92,0,0,0,.32-.05h.08l.48-.2h0a.21.21,0,0,0,.1-.06,1.45,1.45,0,0,0,.56-.51,1.6,1.6,0,0,0,.36-.68,1.55,1.55,0,0,0,0-.8,1.5,1.5,0,0,0-.23-.74l-.32-.41A1.91,1.91,0,0,0,840,325l-.53-.07a2,2,0,0,0-1,.27.3.3,0,0,1-.11.06l.48-.2-.13,0,.53-.08h-.13l.53.08h0a1.55,1.55,0,0,0-.8,0,1.5,1.5,0,0,0-.74.23,1.48,1.48,0,0,0-.56.52,1.45,1.45,0,0,0-.36.68l-.07.53a2,2,0,0,0,.27,1l.31.4a2.08,2.08,0,0,0,.88.52Z" transform="translate(-58.29 -139.13)"/><path class="a" d="M839.67,329.11a25.4,25.4,0,0,0,7.38-4.24,42.19,42.19,0,0,0,6.5-6,2,2,0,0,0-2.83-2.83,37.67,37.67,0,0,1-5.69,5.34c-1,.76-2.07,1.51-3.14,2.21a13.73,13.73,0,0,1-3.28,1.63,2,2,0,0,0-1.4,2.46,2,2,0,0,0,2.46,1.39Z" transform="translate(-58.29 -139.13)"/><line class="c" x1="221.31" y1="342.67" x2="221.61" y2="342.37"/><circle class="a" cx="215.1" cy="215.1" r="212.04"/><circle class="c" cx="215.1" cy="215.1" r="212.04"/></svg>